<mxfile host="app.diagrams.net" agent="Mozilla/5.0 (Windows NT 10.0; Win64; x64) AppleWebKit/537.36 (KHTML, like Gecko) Chrome/129.0.0.0 Safari/537.36 Edg/129.0.0.0" version="24.7.17" pages="4">
  <diagram name="Bài 1" id="qhs43N7DnuUcq9ViTWhs">
    <mxGraphModel dx="1945" dy="683" grid="1" gridSize="10" guides="1" tooltips="1" connect="1" arrows="1" fold="1" page="0" pageScale="1" pageWidth="827" pageHeight="1169" math="0" shadow="0">
      <root>
        <mxCell id="0" />
        <mxCell id="1" parent="0" />
        <mxCell id="9WagWzinxTcB-Vtb8PyH-4" value="NHÂN VIÊN&amp;nbsp;" style="swimlane;fontStyle=0;childLayout=stackLayout;horizontal=1;startSize=30;horizontalStack=0;resizeParent=1;resizeParentMax=0;resizeLast=0;collapsible=1;marginBottom=0;whiteSpace=wrap;html=1;" parent="1" vertex="1">
          <mxGeometry x="-370" y="215" width="250" height="150" as="geometry" />
        </mxCell>
        <mxCell id="9WagWzinxTcB-Vtb8PyH-5" value="&lt;b&gt;Mã nhân viên&lt;/b&gt;" style="text;strokeColor=none;fillColor=none;align=left;verticalAlign=middle;spacingLeft=4;spacingRight=4;overflow=hidden;points=[[0,0.5],[1,0.5]];portConstraint=eastwest;rotatable=0;whiteSpace=wrap;html=1;" parent="9WagWzinxTcB-Vtb8PyH-4" vertex="1">
          <mxGeometry y="30" width="250" height="30" as="geometry" />
        </mxCell>
        <mxCell id="9WagWzinxTcB-Vtb8PyH-6" value="Tên nhân viên" style="text;strokeColor=none;fillColor=none;align=left;verticalAlign=middle;spacingLeft=4;spacingRight=4;overflow=hidden;points=[[0,0.5],[1,0.5]];portConstraint=eastwest;rotatable=0;whiteSpace=wrap;html=1;" parent="9WagWzinxTcB-Vtb8PyH-4" vertex="1">
          <mxGeometry y="60" width="250" height="30" as="geometry" />
        </mxCell>
        <mxCell id="9WagWzinxTcB-Vtb8PyH-7" value="Ngày sinh" style="text;strokeColor=none;fillColor=none;align=left;verticalAlign=middle;spacingLeft=4;spacingRight=4;overflow=hidden;points=[[0,0.5],[1,0.5]];portConstraint=eastwest;rotatable=0;whiteSpace=wrap;html=1;" parent="9WagWzinxTcB-Vtb8PyH-4" vertex="1">
          <mxGeometry y="90" width="250" height="30" as="geometry" />
        </mxCell>
        <mxCell id="9WagWzinxTcB-Vtb8PyH-26" value="Địa chỉ&amp;nbsp;" style="text;strokeColor=none;fillColor=none;align=left;verticalAlign=middle;spacingLeft=4;spacingRight=4;overflow=hidden;points=[[0,0.5],[1,0.5]];portConstraint=eastwest;rotatable=0;whiteSpace=wrap;html=1;" parent="9WagWzinxTcB-Vtb8PyH-4" vertex="1">
          <mxGeometry y="120" width="250" height="30" as="geometry" />
        </mxCell>
        <mxCell id="9WagWzinxTcB-Vtb8PyH-17" style="edgeStyle=none;curved=1;rounded=0;orthogonalLoop=1;jettySize=auto;html=1;exitX=0.5;exitY=0;exitDx=0;exitDy=0;fontSize=12;startSize=8;endSize=8;" parent="1" edge="1">
          <mxGeometry relative="1" as="geometry">
            <mxPoint x="145" y="240" as="sourcePoint" />
            <mxPoint x="145" y="240" as="targetPoint" />
          </mxGeometry>
        </mxCell>
        <mxCell id="9WagWzinxTcB-Vtb8PyH-28" value="DỰ ÁN&amp;nbsp;" style="swimlane;fontStyle=0;childLayout=stackLayout;horizontal=1;startSize=30;horizontalStack=0;resizeParent=1;resizeParentMax=0;resizeLast=0;collapsible=1;marginBottom=0;whiteSpace=wrap;html=1;" parent="1" vertex="1">
          <mxGeometry x="40" y="220" width="250" height="120" as="geometry" />
        </mxCell>
        <mxCell id="9WagWzinxTcB-Vtb8PyH-29" value="&lt;b&gt;Mã dự án&amp;nbsp;&lt;/b&gt;" style="text;strokeColor=none;fillColor=none;align=left;verticalAlign=middle;spacingLeft=4;spacingRight=4;overflow=hidden;points=[[0,0.5],[1,0.5]];portConstraint=eastwest;rotatable=0;whiteSpace=wrap;html=1;" parent="9WagWzinxTcB-Vtb8PyH-28" vertex="1">
          <mxGeometry y="30" width="250" height="30" as="geometry" />
        </mxCell>
        <mxCell id="9WagWzinxTcB-Vtb8PyH-30" value="Tên dự án" style="text;strokeColor=none;fillColor=none;align=left;verticalAlign=middle;spacingLeft=4;spacingRight=4;overflow=hidden;points=[[0,0.5],[1,0.5]];portConstraint=eastwest;rotatable=0;whiteSpace=wrap;html=1;" parent="9WagWzinxTcB-Vtb8PyH-28" vertex="1">
          <mxGeometry y="60" width="250" height="30" as="geometry" />
        </mxCell>
        <mxCell id="9WagWzinxTcB-Vtb8PyH-31" value="Ngày bắt đầu&amp;nbsp;" style="text;strokeColor=none;fillColor=none;align=left;verticalAlign=middle;spacingLeft=4;spacingRight=4;overflow=hidden;points=[[0,0.5],[1,0.5]];portConstraint=eastwest;rotatable=0;whiteSpace=wrap;html=1;" parent="9WagWzinxTcB-Vtb8PyH-28" vertex="1">
          <mxGeometry y="90" width="250" height="30" as="geometry" />
        </mxCell>
        <mxCell id="U27UEWNikDmcOALgGc2q-2" style="edgeStyle=orthogonalEdgeStyle;rounded=0;orthogonalLoop=1;jettySize=auto;html=1;fontSize=12;startSize=8;endSize=8;endArrow=none;endFill=0;" parent="1" source="9WagWzinxTcB-Vtb8PyH-35" target="U27UEWNikDmcOALgGc2q-1" edge="1">
          <mxGeometry relative="1" as="geometry" />
        </mxCell>
        <mxCell id="9WagWzinxTcB-Vtb8PyH-35" value="Tham gia&amp;nbsp;" style="shape=associativeEntity;whiteSpace=wrap;html=1;align=center;" parent="1" vertex="1">
          <mxGeometry x="-120" y="145" width="140" height="60" as="geometry" />
        </mxCell>
        <mxCell id="9WagWzinxTcB-Vtb8PyH-36" value="" style="edgeStyle=orthogonalEdgeStyle;fontSize=12;html=1;endArrow=ERoneToMany;rounded=0;startSize=8;endSize=8;exitX=0;exitY=0.5;exitDx=0;exitDy=0;" parent="1" source="9WagWzinxTcB-Vtb8PyH-35" target="9WagWzinxTcB-Vtb8PyH-4" edge="1">
          <mxGeometry width="100" height="100" relative="1" as="geometry">
            <mxPoint x="-80" y="220" as="sourcePoint" />
            <mxPoint x="20" y="120" as="targetPoint" />
          </mxGeometry>
        </mxCell>
        <mxCell id="9WagWzinxTcB-Vtb8PyH-40" value="" style="edgeStyle=orthogonalEdgeStyle;fontSize=12;html=1;endArrow=ERzeroToMany;endFill=1;rounded=0;startSize=8;endSize=8;" parent="1" source="9WagWzinxTcB-Vtb8PyH-35" target="9WagWzinxTcB-Vtb8PyH-28" edge="1">
          <mxGeometry width="100" height="100" relative="1" as="geometry">
            <mxPoint x="-60" y="220" as="sourcePoint" />
            <mxPoint x="100" y="60" as="targetPoint" />
          </mxGeometry>
        </mxCell>
        <mxCell id="U27UEWNikDmcOALgGc2q-1" value="Lương" style="ellipse;whiteSpace=wrap;html=1;align=center;" parent="1" vertex="1">
          <mxGeometry x="-90" y="60" width="100" height="40" as="geometry" />
        </mxCell>
        <mxCell id="DhI0Xi3_434QCgPOqQrg-2" value="NHÂN VIÊN&amp;nbsp;" style="shape=table;startSize=30;container=1;collapsible=1;childLayout=tableLayout;fixedRows=1;rowLines=0;fontStyle=1;align=center;resizeLast=1;html=1;fillColor=#ffe6cc;strokeColor=#d79b00;" parent="1" vertex="1">
          <mxGeometry x="-530" y="730" width="180" height="120" as="geometry" />
        </mxCell>
        <mxCell id="DhI0Xi3_434QCgPOqQrg-3" value="" style="shape=tableRow;horizontal=0;startSize=0;swimlaneHead=0;swimlaneBody=0;fillColor=none;collapsible=0;dropTarget=0;points=[[0,0.5],[1,0.5]];portConstraint=eastwest;top=0;left=0;right=0;bottom=1;" parent="DhI0Xi3_434QCgPOqQrg-2" vertex="1">
          <mxGeometry y="30" width="180" height="30" as="geometry" />
        </mxCell>
        <mxCell id="DhI0Xi3_434QCgPOqQrg-4" value="PK" style="shape=partialRectangle;connectable=0;fillColor=none;top=0;left=0;bottom=0;right=0;fontStyle=1;overflow=hidden;whiteSpace=wrap;html=1;" parent="DhI0Xi3_434QCgPOqQrg-3" vertex="1">
          <mxGeometry width="30" height="30" as="geometry">
            <mxRectangle width="30" height="30" as="alternateBounds" />
          </mxGeometry>
        </mxCell>
        <mxCell id="DhI0Xi3_434QCgPOqQrg-5" value="Mã nhân viên&amp;nbsp;" style="shape=partialRectangle;connectable=0;fillColor=#dae8fc;top=0;left=0;bottom=0;right=0;align=left;spacingLeft=6;fontStyle=5;overflow=hidden;whiteSpace=wrap;html=1;strokeColor=#6c8ebf;" parent="DhI0Xi3_434QCgPOqQrg-3" vertex="1">
          <mxGeometry x="30" width="150" height="30" as="geometry">
            <mxRectangle width="150" height="30" as="alternateBounds" />
          </mxGeometry>
        </mxCell>
        <mxCell id="DhI0Xi3_434QCgPOqQrg-6" value="" style="shape=tableRow;horizontal=0;startSize=0;swimlaneHead=0;swimlaneBody=0;fillColor=none;collapsible=0;dropTarget=0;points=[[0,0.5],[1,0.5]];portConstraint=eastwest;top=0;left=0;right=0;bottom=0;" parent="DhI0Xi3_434QCgPOqQrg-2" vertex="1">
          <mxGeometry y="60" width="180" height="30" as="geometry" />
        </mxCell>
        <mxCell id="DhI0Xi3_434QCgPOqQrg-7" value="" style="shape=partialRectangle;connectable=0;fillColor=none;top=0;left=0;bottom=0;right=0;editable=1;overflow=hidden;whiteSpace=wrap;html=1;" parent="DhI0Xi3_434QCgPOqQrg-6" vertex="1">
          <mxGeometry width="30" height="30" as="geometry">
            <mxRectangle width="30" height="30" as="alternateBounds" />
          </mxGeometry>
        </mxCell>
        <mxCell id="DhI0Xi3_434QCgPOqQrg-8" value="Tên nhân viên&amp;nbsp;" style="shape=partialRectangle;connectable=0;fillColor=#dae8fc;top=0;left=0;bottom=0;right=0;align=left;spacingLeft=6;overflow=hidden;whiteSpace=wrap;html=1;strokeColor=#6c8ebf;" parent="DhI0Xi3_434QCgPOqQrg-6" vertex="1">
          <mxGeometry x="30" width="150" height="30" as="geometry">
            <mxRectangle width="150" height="30" as="alternateBounds" />
          </mxGeometry>
        </mxCell>
        <mxCell id="DhI0Xi3_434QCgPOqQrg-9" value="" style="shape=tableRow;horizontal=0;startSize=0;swimlaneHead=0;swimlaneBody=0;fillColor=none;collapsible=0;dropTarget=0;points=[[0,0.5],[1,0.5]];portConstraint=eastwest;top=0;left=0;right=0;bottom=0;" parent="DhI0Xi3_434QCgPOqQrg-2" vertex="1">
          <mxGeometry y="90" width="180" height="30" as="geometry" />
        </mxCell>
        <mxCell id="DhI0Xi3_434QCgPOqQrg-10" value="" style="shape=partialRectangle;connectable=0;fillColor=none;top=0;left=0;bottom=0;right=0;editable=1;overflow=hidden;whiteSpace=wrap;html=1;" parent="DhI0Xi3_434QCgPOqQrg-9" vertex="1">
          <mxGeometry width="30" height="30" as="geometry">
            <mxRectangle width="30" height="30" as="alternateBounds" />
          </mxGeometry>
        </mxCell>
        <mxCell id="DhI0Xi3_434QCgPOqQrg-11" value="Ngày sinh&amp;nbsp;" style="shape=partialRectangle;connectable=0;fillColor=#dae8fc;top=0;left=0;bottom=0;right=0;align=left;spacingLeft=6;overflow=hidden;whiteSpace=wrap;html=1;strokeColor=#6c8ebf;" parent="DhI0Xi3_434QCgPOqQrg-9" vertex="1">
          <mxGeometry x="30" width="150" height="30" as="geometry">
            <mxRectangle width="150" height="30" as="alternateBounds" />
          </mxGeometry>
        </mxCell>
        <mxCell id="p_F6S2rywrwfM4tDjWtc-7" value="DỰ ÁN" style="shape=table;startSize=30;container=1;collapsible=1;childLayout=tableLayout;fixedRows=1;rowLines=0;fontStyle=1;align=center;resizeLast=1;html=1;fillColor=#ffe6cc;strokeColor=#d79b00;" parent="1" vertex="1">
          <mxGeometry x="-30" y="610" width="180" height="95" as="geometry" />
        </mxCell>
        <mxCell id="p_F6S2rywrwfM4tDjWtc-8" value="" style="shape=tableRow;horizontal=0;startSize=0;swimlaneHead=0;swimlaneBody=0;fillColor=none;collapsible=0;dropTarget=0;points=[[0,0.5],[1,0.5]];portConstraint=eastwest;top=0;left=0;right=0;bottom=1;" parent="p_F6S2rywrwfM4tDjWtc-7" vertex="1">
          <mxGeometry y="30" width="180" height="30" as="geometry" />
        </mxCell>
        <mxCell id="p_F6S2rywrwfM4tDjWtc-9" value="PK" style="shape=partialRectangle;connectable=0;fillColor=none;top=0;left=0;bottom=0;right=0;fontStyle=1;overflow=hidden;whiteSpace=wrap;html=1;" parent="p_F6S2rywrwfM4tDjWtc-8" vertex="1">
          <mxGeometry width="30" height="30" as="geometry">
            <mxRectangle width="30" height="30" as="alternateBounds" />
          </mxGeometry>
        </mxCell>
        <mxCell id="p_F6S2rywrwfM4tDjWtc-10" value="Mã dự án&amp;nbsp;" style="shape=partialRectangle;connectable=0;fillColor=#d5e8d4;top=0;left=0;bottom=0;right=0;align=left;spacingLeft=6;fontStyle=5;overflow=hidden;whiteSpace=wrap;html=1;strokeColor=#82b366;" parent="p_F6S2rywrwfM4tDjWtc-8" vertex="1">
          <mxGeometry x="30" width="150" height="30" as="geometry">
            <mxRectangle width="150" height="30" as="alternateBounds" />
          </mxGeometry>
        </mxCell>
        <mxCell id="p_F6S2rywrwfM4tDjWtc-11" value="" style="shape=tableRow;horizontal=0;startSize=0;swimlaneHead=0;swimlaneBody=0;fillColor=none;collapsible=0;dropTarget=0;points=[[0,0.5],[1,0.5]];portConstraint=eastwest;top=0;left=0;right=0;bottom=0;" parent="p_F6S2rywrwfM4tDjWtc-7" vertex="1">
          <mxGeometry y="60" width="180" height="35" as="geometry" />
        </mxCell>
        <mxCell id="p_F6S2rywrwfM4tDjWtc-12" value="" style="shape=partialRectangle;connectable=0;fillColor=none;top=0;left=0;bottom=0;right=0;editable=1;overflow=hidden;whiteSpace=wrap;html=1;" parent="p_F6S2rywrwfM4tDjWtc-11" vertex="1">
          <mxGeometry width="30" height="35" as="geometry">
            <mxRectangle width="30" height="35" as="alternateBounds" />
          </mxGeometry>
        </mxCell>
        <mxCell id="p_F6S2rywrwfM4tDjWtc-13" value="Tên dự án&amp;nbsp;" style="shape=partialRectangle;connectable=0;fillColor=#d5e8d4;top=0;left=0;bottom=0;right=0;align=left;spacingLeft=6;overflow=hidden;whiteSpace=wrap;html=1;strokeColor=#82b366;" parent="p_F6S2rywrwfM4tDjWtc-11" vertex="1">
          <mxGeometry x="30" width="150" height="35" as="geometry">
            <mxRectangle width="150" height="35" as="alternateBounds" />
          </mxGeometry>
        </mxCell>
        <mxCell id="p_F6S2rywrwfM4tDjWtc-36" value="CHI TIẾT DỰ ÁN" style="shape=table;startSize=30;container=1;collapsible=1;childLayout=tableLayout;fixedRows=1;rowLines=0;fontStyle=1;align=center;resizeLast=1;html=1;whiteSpace=wrap;fillColor=#ffe6cc;strokeColor=#d79b00;" parent="1" vertex="1">
          <mxGeometry x="-280" y="650" width="180" height="120" as="geometry" />
        </mxCell>
        <mxCell id="p_F6S2rywrwfM4tDjWtc-37" value="" style="shape=tableRow;horizontal=0;startSize=0;swimlaneHead=0;swimlaneBody=0;fillColor=#d5e8d4;collapsible=0;dropTarget=0;points=[[0,0.5],[1,0.5]];portConstraint=eastwest;top=0;left=0;right=0;bottom=0;html=1;strokeColor=#82b366;" parent="p_F6S2rywrwfM4tDjWtc-36" vertex="1">
          <mxGeometry y="30" width="180" height="30" as="geometry" />
        </mxCell>
        <mxCell id="p_F6S2rywrwfM4tDjWtc-38" value="PK,FK1" style="shape=partialRectangle;connectable=0;top=0;left=0;bottom=0;right=0;fontStyle=1;overflow=hidden;html=1;whiteSpace=wrap;" parent="p_F6S2rywrwfM4tDjWtc-37" vertex="1">
          <mxGeometry width="60" height="30" as="geometry">
            <mxRectangle width="60" height="30" as="alternateBounds" />
          </mxGeometry>
        </mxCell>
        <mxCell id="p_F6S2rywrwfM4tDjWtc-39" value="Mã nhân viên&amp;nbsp;" style="shape=partialRectangle;connectable=0;fillColor=none;top=0;left=0;bottom=0;right=0;align=left;spacingLeft=6;fontStyle=5;overflow=hidden;html=1;whiteSpace=wrap;" parent="p_F6S2rywrwfM4tDjWtc-37" vertex="1">
          <mxGeometry x="60" width="120" height="30" as="geometry">
            <mxRectangle width="120" height="30" as="alternateBounds" />
          </mxGeometry>
        </mxCell>
        <mxCell id="p_F6S2rywrwfM4tDjWtc-40" value="" style="shape=tableRow;horizontal=0;startSize=0;swimlaneHead=0;swimlaneBody=0;fillColor=none;collapsible=0;dropTarget=0;points=[[0,0.5],[1,0.5]];portConstraint=eastwest;top=0;left=0;right=0;bottom=1;html=1;" parent="p_F6S2rywrwfM4tDjWtc-36" vertex="1">
          <mxGeometry y="60" width="180" height="30" as="geometry" />
        </mxCell>
        <mxCell id="p_F6S2rywrwfM4tDjWtc-41" value="PK,FK2" style="shape=partialRectangle;connectable=0;fillColor=none;top=0;left=0;bottom=0;right=0;fontStyle=1;overflow=hidden;html=1;whiteSpace=wrap;" parent="p_F6S2rywrwfM4tDjWtc-40" vertex="1">
          <mxGeometry width="60" height="30" as="geometry">
            <mxRectangle width="60" height="30" as="alternateBounds" />
          </mxGeometry>
        </mxCell>
        <mxCell id="p_F6S2rywrwfM4tDjWtc-42" value="Mã dự án" style="shape=partialRectangle;connectable=0;fillColor=#d5e8d4;top=0;left=0;bottom=0;right=0;align=left;spacingLeft=6;fontStyle=5;overflow=hidden;html=1;whiteSpace=wrap;strokeColor=#82b366;" parent="p_F6S2rywrwfM4tDjWtc-40" vertex="1">
          <mxGeometry x="60" width="120" height="30" as="geometry">
            <mxRectangle width="120" height="30" as="alternateBounds" />
          </mxGeometry>
        </mxCell>
        <mxCell id="p_F6S2rywrwfM4tDjWtc-43" value="" style="shape=tableRow;horizontal=0;startSize=0;swimlaneHead=0;swimlaneBody=0;fillColor=none;collapsible=0;dropTarget=0;points=[[0,0.5],[1,0.5]];portConstraint=eastwest;top=0;left=0;right=0;bottom=0;html=1;" parent="p_F6S2rywrwfM4tDjWtc-36" vertex="1">
          <mxGeometry y="90" width="180" height="30" as="geometry" />
        </mxCell>
        <mxCell id="p_F6S2rywrwfM4tDjWtc-44" value="" style="shape=partialRectangle;connectable=0;fillColor=none;top=0;left=0;bottom=0;right=0;editable=1;overflow=hidden;html=1;whiteSpace=wrap;" parent="p_F6S2rywrwfM4tDjWtc-43" vertex="1">
          <mxGeometry width="60" height="30" as="geometry">
            <mxRectangle width="60" height="30" as="alternateBounds" />
          </mxGeometry>
        </mxCell>
        <mxCell id="p_F6S2rywrwfM4tDjWtc-45" value="Tiền lương" style="shape=partialRectangle;connectable=0;fillColor=#d5e8d4;top=0;left=0;bottom=0;right=0;align=left;spacingLeft=6;overflow=hidden;html=1;whiteSpace=wrap;strokeColor=#82b366;" parent="p_F6S2rywrwfM4tDjWtc-43" vertex="1">
          <mxGeometry x="60" width="120" height="30" as="geometry">
            <mxRectangle width="120" height="30" as="alternateBounds" />
          </mxGeometry>
        </mxCell>
        <mxCell id="p_F6S2rywrwfM4tDjWtc-52" value="" style="edgeStyle=orthogonalEdgeStyle;fontSize=12;html=1;endArrow=ERoneToMany;startArrow=ERmandOne;rounded=0;startSize=8;endSize=8;" parent="1" source="DhI0Xi3_434QCgPOqQrg-3" target="p_F6S2rywrwfM4tDjWtc-37" edge="1">
          <mxGeometry width="100" height="100" relative="1" as="geometry">
            <mxPoint x="-270" y="640" as="sourcePoint" />
            <mxPoint x="-170" y="540" as="targetPoint" />
          </mxGeometry>
        </mxCell>
        <mxCell id="p_F6S2rywrwfM4tDjWtc-53" value="" style="edgeStyle=orthogonalEdgeStyle;fontSize=12;html=1;endArrow=ERoneToMany;startArrow=ERmandOne;rounded=0;startSize=8;endSize=8;" parent="1" source="p_F6S2rywrwfM4tDjWtc-8" target="p_F6S2rywrwfM4tDjWtc-40" edge="1">
          <mxGeometry width="100" height="100" relative="1" as="geometry">
            <mxPoint x="-40" y="760" as="sourcePoint" />
            <mxPoint x="80" y="810" as="targetPoint" />
          </mxGeometry>
        </mxCell>
        <mxCell id="p_F6S2rywrwfM4tDjWtc-55" value="" style="verticalLabelPosition=bottom;verticalAlign=top;html=1;strokeWidth=2;shape=mxgraph.arrows2.arrow;dy=0.6;dx=40;notch=0;rotation=90;fillColor=#008a00;fontColor=#ffffff;strokeColor=#005700;" parent="1" vertex="1">
          <mxGeometry x="-310" y="430" width="190" height="150" as="geometry" />
        </mxCell>
        <mxCell id="p_F6S2rywrwfM4tDjWtc-56" value="&lt;font face=&quot;Times New Roman&quot; style=&quot;font-size: 20px;&quot;&gt;Chuyển từ ERD qua EG&lt;/font&gt;" style="rounded=0;whiteSpace=wrap;html=1;strokeWidth=5;" parent="1" vertex="1">
          <mxGeometry x="-70" y="400" width="180" height="160" as="geometry" />
        </mxCell>
      </root>
    </mxGraphModel>
  </diagram>
  <diagram id="KjhQIJJynIvsZzg0spZp" name="Bài 2">
    <mxGraphModel dx="2024" dy="911" grid="1" gridSize="10" guides="1" tooltips="1" connect="1" arrows="1" fold="1" page="0" pageScale="1" pageWidth="827" pageHeight="1169" math="0" shadow="0">
      <root>
        <mxCell id="0" />
        <mxCell id="1" parent="0" />
        <mxCell id="bBmzQvag57nKuMDm7wRF-51" value="KHÁCH HÀNG" style="swimlane;fontStyle=0;childLayout=stackLayout;horizontal=1;startSize=26;horizontalStack=0;resizeParent=1;resizeParentMax=0;resizeLast=0;collapsible=1;marginBottom=0;align=center;fontSize=14;fontFamily=Times New Roman;fillColor=#d5e8d4;strokeColor=#82b366;" parent="1" vertex="1">
          <mxGeometry x="-640" y="235" width="160" height="116" as="geometry" />
        </mxCell>
        <mxCell id="bBmzQvag57nKuMDm7wRF-52" value="Mã khách hàng&amp;nbsp;" style="text;strokeColor=none;fillColor=none;spacingLeft=4;spacingRight=4;overflow=hidden;rotatable=0;points=[[0,0.5],[1,0.5]];portConstraint=eastwest;fontSize=12;whiteSpace=wrap;html=1;fontFamily=Times New Roman;" parent="bBmzQvag57nKuMDm7wRF-51" vertex="1">
          <mxGeometry y="26" width="160" height="30" as="geometry" />
        </mxCell>
        <mxCell id="bBmzQvag57nKuMDm7wRF-53" value="Tên khách hàng&amp;nbsp;" style="text;strokeColor=none;fillColor=none;spacingLeft=4;spacingRight=4;overflow=hidden;rotatable=0;points=[[0,0.5],[1,0.5]];portConstraint=eastwest;fontSize=12;whiteSpace=wrap;html=1;fontFamily=Times New Roman;" parent="bBmzQvag57nKuMDm7wRF-51" vertex="1">
          <mxGeometry y="56" width="160" height="30" as="geometry" />
        </mxCell>
        <mxCell id="bBmzQvag57nKuMDm7wRF-61" value="Địa chỉ&amp;nbsp;" style="text;strokeColor=none;fillColor=none;spacingLeft=4;spacingRight=4;overflow=hidden;rotatable=0;points=[[0,0.5],[1,0.5]];portConstraint=eastwest;fontSize=12;whiteSpace=wrap;html=1;fontFamily=Times New Roman;" parent="bBmzQvag57nKuMDm7wRF-51" vertex="1">
          <mxGeometry y="86" width="160" height="30" as="geometry" />
        </mxCell>
        <mxCell id="bBmzQvag57nKuMDm7wRF-54" value="Quan hệ nhiều nhiều (có thuộc tính )" style="rounded=0;whiteSpace=wrap;html=1;strokeWidth=5;fontFamily=Times New Roman;" parent="1" vertex="1">
          <mxGeometry x="-520" y="-30" width="160" height="60" as="geometry" />
        </mxCell>
        <mxCell id="bBmzQvag57nKuMDm7wRF-55" value="MẶT HÀNG" style="swimlane;fontStyle=0;childLayout=stackLayout;horizontal=1;startSize=26;horizontalStack=0;resizeParent=1;resizeParentMax=0;resizeLast=0;collapsible=1;marginBottom=0;align=center;fontSize=14;fontFamily=Times New Roman;fillColor=#d5e8d4;strokeColor=#82b366;" parent="1" vertex="1">
          <mxGeometry x="-90" y="220" width="160" height="146" as="geometry" />
        </mxCell>
        <mxCell id="bBmzQvag57nKuMDm7wRF-56" value="&lt;b&gt;Mã mặt hàng&lt;/b&gt;" style="text;strokeColor=none;fillColor=none;spacingLeft=4;spacingRight=4;overflow=hidden;rotatable=0;points=[[0,0.5],[1,0.5]];portConstraint=eastwest;fontSize=12;whiteSpace=wrap;html=1;fontFamily=Times New Roman;" parent="bBmzQvag57nKuMDm7wRF-55" vertex="1">
          <mxGeometry y="26" width="160" height="30" as="geometry" />
        </mxCell>
        <mxCell id="bBmzQvag57nKuMDm7wRF-57" value="Đặt tả&amp;nbsp;" style="text;strokeColor=none;fillColor=none;spacingLeft=4;spacingRight=4;overflow=hidden;rotatable=0;points=[[0,0.5],[1,0.5]];portConstraint=eastwest;fontSize=12;whiteSpace=wrap;html=1;fontFamily=Times New Roman;" parent="bBmzQvag57nKuMDm7wRF-55" vertex="1">
          <mxGeometry y="56" width="160" height="30" as="geometry" />
        </mxCell>
        <mxCell id="bBmzQvag57nKuMDm7wRF-58" value="Giá&amp;nbsp;" style="text;strokeColor=none;fillColor=none;spacingLeft=4;spacingRight=4;overflow=hidden;rotatable=0;points=[[0,0.5],[1,0.5]];portConstraint=eastwest;fontSize=12;whiteSpace=wrap;html=1;fontFamily=Times New Roman;" parent="bBmzQvag57nKuMDm7wRF-55" vertex="1">
          <mxGeometry y="86" width="160" height="30" as="geometry" />
        </mxCell>
        <mxCell id="bBmzQvag57nKuMDm7wRF-59" value="Tính trạng" style="text;strokeColor=none;fillColor=none;spacingLeft=4;spacingRight=4;overflow=hidden;rotatable=0;points=[[0,0.5],[1,0.5]];portConstraint=eastwest;fontSize=12;whiteSpace=wrap;html=1;fontFamily=Times New Roman;" parent="bBmzQvag57nKuMDm7wRF-55" vertex="1">
          <mxGeometry y="116" width="160" height="30" as="geometry" />
        </mxCell>
        <mxCell id="bBmzQvag57nKuMDm7wRF-60" value="Sơ đồ ERD" style="rounded=0;whiteSpace=wrap;html=1;strokeWidth=5;fontFamily=Times New Roman;" parent="1" vertex="1">
          <mxGeometry x="-240" y="-70" width="120" height="60" as="geometry" />
        </mxCell>
        <mxCell id="bBmzQvag57nKuMDm7wRF-62" value="Mỗi khách hàng mua ít nhất 1 hay&amp;nbsp; nhiều nhất nhiều&amp;nbsp;" style="rounded=0;whiteSpace=wrap;html=1;strokeWidth=5;fontFamily=Times New Roman;" parent="1" vertex="1">
          <mxGeometry x="-635" y="169" width="150" height="66" as="geometry" />
        </mxCell>
        <mxCell id="bBmzQvag57nKuMDm7wRF-63" value="" style="edgeStyle=orthogonalEdgeStyle;fontSize=12;html=1;endArrow=ERoneToMany;startArrow=none;rounded=0;startSize=8;endSize=8;startFill=0;exitX=0;exitY=0.5;exitDx=0;exitDy=0;fontFamily=Times New Roman;" parent="1" source="d3uKNSylR1Rwk-7e_hoS-13" target="bBmzQvag57nKuMDm7wRF-51" edge="1">
          <mxGeometry width="100" height="100" relative="1" as="geometry">
            <mxPoint x="-360" y="210" as="sourcePoint" />
            <mxPoint x="-160" y="180" as="targetPoint" />
          </mxGeometry>
        </mxCell>
        <mxCell id="bBmzQvag57nKuMDm7wRF-64" value="Mỗi mặt hàng có thể 0 có người mua hay nhiều người mua&amp;nbsp;" style="rounded=0;whiteSpace=wrap;html=1;strokeWidth=5;fontFamily=Times New Roman;" parent="1" vertex="1">
          <mxGeometry x="-85" y="110" width="150" height="100" as="geometry" />
        </mxCell>
        <mxCell id="bBmzQvag57nKuMDm7wRF-66" value="" style="edgeStyle=orthogonalEdgeStyle;fontSize=12;html=1;endArrow=none;startArrow=ERzeroToMany;rounded=0;startSize=8;endSize=8;endFill=0;entryX=1;entryY=0.5;entryDx=0;entryDy=0;fontFamily=Times New Roman;" parent="1" source="bBmzQvag57nKuMDm7wRF-55" target="d3uKNSylR1Rwk-7e_hoS-13" edge="1">
          <mxGeometry width="100" height="100" relative="1" as="geometry">
            <mxPoint x="-90" y="293" as="sourcePoint" />
            <mxPoint x="-220.00000000000023" y="210" as="targetPoint" />
          </mxGeometry>
        </mxCell>
        <mxCell id="bBmzQvag57nKuMDm7wRF-71" style="edgeStyle=none;curved=1;rounded=0;orthogonalLoop=1;jettySize=auto;html=1;entryX=0.5;entryY=0;entryDx=0;entryDy=0;fontSize=12;startSize=8;endSize=8;fontFamily=Times New Roman;" parent="1" source="d3uKNSylR1Rwk-7e_hoS-13" target="bBmzQvag57nKuMDm7wRF-67" edge="1">
          <mxGeometry relative="1" as="geometry">
            <mxPoint x="-326" y="180" as="sourcePoint" />
          </mxGeometry>
        </mxCell>
        <mxCell id="bBmzQvag57nKuMDm7wRF-72" style="edgeStyle=none;curved=1;rounded=0;orthogonalLoop=1;jettySize=auto;html=1;entryX=0.5;entryY=0;entryDx=0;entryDy=0;fontSize=12;startSize=8;endSize=8;fontFamily=Times New Roman;" parent="1" source="d3uKNSylR1Rwk-7e_hoS-13" target="bBmzQvag57nKuMDm7wRF-68" edge="1">
          <mxGeometry relative="1" as="geometry">
            <mxPoint x="-290" y="180" as="sourcePoint" />
          </mxGeometry>
        </mxCell>
        <mxCell id="bBmzQvag57nKuMDm7wRF-73" style="edgeStyle=none;curved=1;rounded=0;orthogonalLoop=1;jettySize=auto;html=1;entryX=0.5;entryY=0;entryDx=0;entryDy=0;fontSize=12;startSize=8;endSize=8;fontFamily=Times New Roman;" parent="1" source="d3uKNSylR1Rwk-7e_hoS-13" target="bBmzQvag57nKuMDm7wRF-69" edge="1">
          <mxGeometry relative="1" as="geometry">
            <mxPoint x="-260.0000000000002" y="180" as="sourcePoint" />
          </mxGeometry>
        </mxCell>
        <mxCell id="bBmzQvag57nKuMDm7wRF-67" value="Giá mua&amp;nbsp;" style="ellipse;whiteSpace=wrap;html=1;align=center;fillColor=#e1d5e7;strokeColor=#9673a6;fontFamily=Times New Roman;" parent="1" vertex="1">
          <mxGeometry x="-520" y="60" width="100" height="40" as="geometry" />
        </mxCell>
        <mxCell id="bBmzQvag57nKuMDm7wRF-68" value="Ngày mua&amp;nbsp;" style="ellipse;whiteSpace=wrap;html=1;align=center;fillColor=#e1d5e7;strokeColor=#9673a6;fontFamily=Times New Roman;" parent="1" vertex="1">
          <mxGeometry x="-340" y="30" width="100" height="40" as="geometry" />
        </mxCell>
        <mxCell id="bBmzQvag57nKuMDm7wRF-69" value="Tính trạng" style="ellipse;whiteSpace=wrap;html=1;align=center;fillColor=#e1d5e7;strokeColor=#9673a6;fontFamily=Times New Roman;" parent="1" vertex="1">
          <mxGeometry x="-190" y="60" width="100" height="40" as="geometry" />
        </mxCell>
        <mxCell id="bBmzQvag57nKuMDm7wRF-75" value="" style="edgeStyle=orthogonalEdgeStyle;fontSize=12;html=1;endArrow=ERzeroToMany;endFill=1;rounded=0;startSize=8;endSize=8;exitX=1;exitY=0.5;exitDx=0;exitDy=0;fontFamily=Times New Roman;" parent="1" source="d3uKNSylR1Rwk-7e_hoS-12" target="bBmzQvag57nKuMDm7wRF-55" edge="1">
          <mxGeometry width="100" height="100" relative="1" as="geometry">
            <mxPoint x="-210.00000000000023" y="400" as="sourcePoint" />
            <mxPoint x="-280" y="390" as="targetPoint" />
          </mxGeometry>
        </mxCell>
        <mxCell id="bBmzQvag57nKuMDm7wRF-76" value="" style="edgeStyle=orthogonalEdgeStyle;fontSize=12;html=1;endArrow=ERoneToMany;rounded=0;startSize=8;endSize=8;exitX=0;exitY=0.5;exitDx=0;exitDy=0;fontFamily=Times New Roman;" parent="1" source="d3uKNSylR1Rwk-7e_hoS-12" target="bBmzQvag57nKuMDm7wRF-51" edge="1">
          <mxGeometry width="100" height="100" relative="1" as="geometry">
            <mxPoint x="-350" y="400" as="sourcePoint" />
            <mxPoint x="-290" y="350" as="targetPoint" />
          </mxGeometry>
        </mxCell>
        <mxCell id="d3uKNSylR1Rwk-7e_hoS-1" value="Tiền hoa hồng&amp;nbsp;" style="ellipse;whiteSpace=wrap;html=1;align=center;fillColor=#e1d5e7;strokeColor=#9673a6;fontFamily=Times New Roman;" parent="1" vertex="1">
          <mxGeometry x="-550" y="500" width="100" height="60" as="geometry" />
        </mxCell>
        <mxCell id="d3uKNSylR1Rwk-7e_hoS-2" value="Giá bán&amp;nbsp;" style="ellipse;whiteSpace=wrap;html=1;align=center;fillColor=#e1d5e7;strokeColor=#9673a6;fontFamily=Times New Roman;" parent="1" vertex="1">
          <mxGeometry x="-410" y="550" width="100" height="50" as="geometry" />
        </mxCell>
        <mxCell id="d3uKNSylR1Rwk-7e_hoS-3" value="Thuế&amp;nbsp;" style="ellipse;whiteSpace=wrap;html=1;align=center;fillColor=#e1d5e7;strokeColor=#9673a6;fontFamily=Times New Roman;" parent="1" vertex="1">
          <mxGeometry x="-80" y="500" width="100" height="60" as="geometry" />
        </mxCell>
        <mxCell id="d3uKNSylR1Rwk-7e_hoS-4" value="Ngày bán&amp;nbsp;" style="ellipse;whiteSpace=wrap;html=1;align=center;fillColor=#e1d5e7;strokeColor=#9673a6;fontFamily=Times New Roman;" parent="1" vertex="1">
          <mxGeometry x="-240" y="550" width="100" height="50" as="geometry" />
        </mxCell>
        <mxCell id="d3uKNSylR1Rwk-7e_hoS-5" style="edgeStyle=none;curved=1;rounded=0;orthogonalLoop=1;jettySize=auto;html=1;fontSize=12;startSize=8;endSize=8;endArrow=none;endFill=0;fontFamily=Times New Roman;" parent="1" source="d3uKNSylR1Rwk-7e_hoS-4" target="d3uKNSylR1Rwk-7e_hoS-12" edge="1">
          <mxGeometry relative="1" as="geometry">
            <mxPoint x="-340" y="645.5" as="sourcePoint" />
            <mxPoint x="-264.57142857142844" y="430" as="targetPoint" />
          </mxGeometry>
        </mxCell>
        <mxCell id="d3uKNSylR1Rwk-7e_hoS-6" style="edgeStyle=none;curved=1;rounded=0;orthogonalLoop=1;jettySize=auto;html=1;fontSize=12;startSize=8;endSize=8;endArrow=none;endFill=0;fontFamily=Times New Roman;" parent="1" source="d3uKNSylR1Rwk-7e_hoS-3" target="d3uKNSylR1Rwk-7e_hoS-12" edge="1">
          <mxGeometry relative="1" as="geometry">
            <mxPoint x="-240" y="631" as="sourcePoint" />
            <mxPoint x="-222.30769230769238" y="430" as="targetPoint" />
          </mxGeometry>
        </mxCell>
        <mxCell id="d3uKNSylR1Rwk-7e_hoS-7" style="edgeStyle=none;curved=1;rounded=0;orthogonalLoop=1;jettySize=auto;html=1;fontSize=12;startSize=8;endSize=8;endArrow=none;endFill=0;fontFamily=Times New Roman;" parent="1" source="d3uKNSylR1Rwk-7e_hoS-2" target="d3uKNSylR1Rwk-7e_hoS-12" edge="1">
          <mxGeometry relative="1" as="geometry">
            <mxPoint x="-470" y="621" as="sourcePoint" />
            <mxPoint x="-293.7142857142858" y="430" as="targetPoint" />
          </mxGeometry>
        </mxCell>
        <mxCell id="d3uKNSylR1Rwk-7e_hoS-8" style="edgeStyle=none;curved=1;rounded=0;orthogonalLoop=1;jettySize=auto;html=1;fontSize=12;startSize=8;endSize=8;endArrow=none;endFill=0;fontFamily=Times New Roman;" parent="1" source="d3uKNSylR1Rwk-7e_hoS-1" target="d3uKNSylR1Rwk-7e_hoS-12" edge="1">
          <mxGeometry relative="1" as="geometry">
            <mxPoint x="-420" y="600" as="sourcePoint" />
            <mxPoint x="-330.7692307692307" y="430" as="targetPoint" />
          </mxGeometry>
        </mxCell>
        <mxCell id="d3uKNSylR1Rwk-7e_hoS-12" value="Bán" style="shape=rhombus;perimeter=rhombusPerimeter;whiteSpace=wrap;html=1;align=center;fillColor=#008a00;strokeColor=#005700;fontFamily=Times New Roman;" parent="1" vertex="1">
          <mxGeometry x="-350" y="390" width="120" height="60" as="geometry" />
        </mxCell>
        <mxCell id="d3uKNSylR1Rwk-7e_hoS-13" value="Mua" style="shape=rhombus;perimeter=rhombusPerimeter;whiteSpace=wrap;html=1;align=center;fillColor=#008a00;strokeColor=#005700;fontFamily=Times New Roman;" parent="1" vertex="1">
          <mxGeometry x="-340" y="190" width="120" height="60" as="geometry" />
        </mxCell>
        <mxCell id="Imp9iJiyCljEq4ADmny--1" value="KHÁCH HÀNG" style="shape=table;startSize=30;container=1;collapsible=1;childLayout=tableLayout;fixedRows=1;rowLines=0;fontStyle=1;align=center;resizeLast=1;html=1;fillColor=#d5e8d4;strokeColor=#82b366;fontFamily=Times New Roman;" parent="1" vertex="1">
          <mxGeometry x="-815" y="790" width="180" height="120" as="geometry" />
        </mxCell>
        <mxCell id="Imp9iJiyCljEq4ADmny--2" value="" style="shape=tableRow;horizontal=0;startSize=0;swimlaneHead=0;swimlaneBody=0;fillColor=none;collapsible=0;dropTarget=0;points=[[0,0.5],[1,0.5]];portConstraint=eastwest;top=0;left=0;right=0;bottom=1;fontFamily=Times New Roman;" parent="Imp9iJiyCljEq4ADmny--1" vertex="1">
          <mxGeometry y="30" width="180" height="30" as="geometry" />
        </mxCell>
        <mxCell id="Imp9iJiyCljEq4ADmny--3" value="PK" style="shape=partialRectangle;connectable=0;fillColor=none;top=0;left=0;bottom=0;right=0;fontStyle=1;overflow=hidden;whiteSpace=wrap;html=1;fontFamily=Times New Roman;" parent="Imp9iJiyCljEq4ADmny--2" vertex="1">
          <mxGeometry width="30" height="30" as="geometry">
            <mxRectangle width="30" height="30" as="alternateBounds" />
          </mxGeometry>
        </mxCell>
        <mxCell id="Imp9iJiyCljEq4ADmny--4" value="Mã khách hàng" style="shape=partialRectangle;connectable=0;fillColor=none;top=0;left=0;bottom=0;right=0;align=left;spacingLeft=6;fontStyle=5;overflow=hidden;whiteSpace=wrap;html=1;fontFamily=Times New Roman;" parent="Imp9iJiyCljEq4ADmny--2" vertex="1">
          <mxGeometry x="30" width="150" height="30" as="geometry">
            <mxRectangle width="150" height="30" as="alternateBounds" />
          </mxGeometry>
        </mxCell>
        <mxCell id="Imp9iJiyCljEq4ADmny--5" value="" style="shape=tableRow;horizontal=0;startSize=0;swimlaneHead=0;swimlaneBody=0;fillColor=none;collapsible=0;dropTarget=0;points=[[0,0.5],[1,0.5]];portConstraint=eastwest;top=0;left=0;right=0;bottom=0;fontFamily=Times New Roman;" parent="Imp9iJiyCljEq4ADmny--1" vertex="1">
          <mxGeometry y="60" width="180" height="30" as="geometry" />
        </mxCell>
        <mxCell id="Imp9iJiyCljEq4ADmny--6" value="" style="shape=partialRectangle;connectable=0;fillColor=none;top=0;left=0;bottom=0;right=0;editable=1;overflow=hidden;whiteSpace=wrap;html=1;fontFamily=Times New Roman;" parent="Imp9iJiyCljEq4ADmny--5" vertex="1">
          <mxGeometry width="30" height="30" as="geometry">
            <mxRectangle width="30" height="30" as="alternateBounds" />
          </mxGeometry>
        </mxCell>
        <mxCell id="Imp9iJiyCljEq4ADmny--7" value="Ten khách hàng" style="shape=partialRectangle;connectable=0;fillColor=none;top=0;left=0;bottom=0;right=0;align=left;spacingLeft=6;overflow=hidden;whiteSpace=wrap;html=1;fontFamily=Times New Roman;" parent="Imp9iJiyCljEq4ADmny--5" vertex="1">
          <mxGeometry x="30" width="150" height="30" as="geometry">
            <mxRectangle width="150" height="30" as="alternateBounds" />
          </mxGeometry>
        </mxCell>
        <mxCell id="Imp9iJiyCljEq4ADmny--8" value="" style="shape=tableRow;horizontal=0;startSize=0;swimlaneHead=0;swimlaneBody=0;fillColor=none;collapsible=0;dropTarget=0;points=[[0,0.5],[1,0.5]];portConstraint=eastwest;top=0;left=0;right=0;bottom=0;fontFamily=Times New Roman;" parent="Imp9iJiyCljEq4ADmny--1" vertex="1">
          <mxGeometry y="90" width="180" height="30" as="geometry" />
        </mxCell>
        <mxCell id="Imp9iJiyCljEq4ADmny--9" value="" style="shape=partialRectangle;connectable=0;fillColor=none;top=0;left=0;bottom=0;right=0;editable=1;overflow=hidden;whiteSpace=wrap;html=1;fontFamily=Times New Roman;" parent="Imp9iJiyCljEq4ADmny--8" vertex="1">
          <mxGeometry width="30" height="30" as="geometry">
            <mxRectangle width="30" height="30" as="alternateBounds" />
          </mxGeometry>
        </mxCell>
        <mxCell id="Imp9iJiyCljEq4ADmny--10" value="Địa chỉ" style="shape=partialRectangle;connectable=0;fillColor=none;top=0;left=0;bottom=0;right=0;align=left;spacingLeft=6;overflow=hidden;whiteSpace=wrap;html=1;fontFamily=Times New Roman;" parent="Imp9iJiyCljEq4ADmny--8" vertex="1">
          <mxGeometry x="30" width="150" height="30" as="geometry">
            <mxRectangle width="150" height="30" as="alternateBounds" />
          </mxGeometry>
        </mxCell>
        <mxCell id="Imp9iJiyCljEq4ADmny--14" value="MẶT HÀNG&amp;nbsp;" style="shape=table;startSize=30;container=1;collapsible=1;childLayout=tableLayout;fixedRows=1;rowLines=0;fontStyle=1;align=center;resizeLast=1;html=1;fillColor=#d5e8d4;strokeColor=#82b366;fontFamily=Times New Roman;" parent="1" vertex="1">
          <mxGeometry y="740" width="180" height="150" as="geometry" />
        </mxCell>
        <mxCell id="Imp9iJiyCljEq4ADmny--15" value="" style="shape=tableRow;horizontal=0;startSize=0;swimlaneHead=0;swimlaneBody=0;fillColor=none;collapsible=0;dropTarget=0;points=[[0,0.5],[1,0.5]];portConstraint=eastwest;top=0;left=0;right=0;bottom=1;fontFamily=Times New Roman;" parent="Imp9iJiyCljEq4ADmny--14" vertex="1">
          <mxGeometry y="30" width="180" height="30" as="geometry" />
        </mxCell>
        <mxCell id="Imp9iJiyCljEq4ADmny--16" value="PK" style="shape=partialRectangle;connectable=0;fillColor=none;top=0;left=0;bottom=0;right=0;fontStyle=1;overflow=hidden;whiteSpace=wrap;html=1;fontFamily=Times New Roman;" parent="Imp9iJiyCljEq4ADmny--15" vertex="1">
          <mxGeometry width="30" height="30" as="geometry">
            <mxRectangle width="30" height="30" as="alternateBounds" />
          </mxGeometry>
        </mxCell>
        <mxCell id="Imp9iJiyCljEq4ADmny--17" value="Mã mặt hàng" style="shape=partialRectangle;connectable=0;fillColor=none;top=0;left=0;bottom=0;right=0;align=left;spacingLeft=6;fontStyle=5;overflow=hidden;whiteSpace=wrap;html=1;fontFamily=Times New Roman;" parent="Imp9iJiyCljEq4ADmny--15" vertex="1">
          <mxGeometry x="30" width="150" height="30" as="geometry">
            <mxRectangle width="150" height="30" as="alternateBounds" />
          </mxGeometry>
        </mxCell>
        <mxCell id="Imp9iJiyCljEq4ADmny--18" value="" style="shape=tableRow;horizontal=0;startSize=0;swimlaneHead=0;swimlaneBody=0;fillColor=none;collapsible=0;dropTarget=0;points=[[0,0.5],[1,0.5]];portConstraint=eastwest;top=0;left=0;right=0;bottom=0;fontFamily=Times New Roman;" parent="Imp9iJiyCljEq4ADmny--14" vertex="1">
          <mxGeometry y="60" width="180" height="30" as="geometry" />
        </mxCell>
        <mxCell id="Imp9iJiyCljEq4ADmny--19" value="" style="shape=partialRectangle;connectable=0;fillColor=none;top=0;left=0;bottom=0;right=0;editable=1;overflow=hidden;whiteSpace=wrap;html=1;fontFamily=Times New Roman;" parent="Imp9iJiyCljEq4ADmny--18" vertex="1">
          <mxGeometry width="30" height="30" as="geometry">
            <mxRectangle width="30" height="30" as="alternateBounds" />
          </mxGeometry>
        </mxCell>
        <mxCell id="Imp9iJiyCljEq4ADmny--20" value="Đặt tả" style="shape=partialRectangle;connectable=0;fillColor=none;top=0;left=0;bottom=0;right=0;align=left;spacingLeft=6;overflow=hidden;whiteSpace=wrap;html=1;fontFamily=Times New Roman;" parent="Imp9iJiyCljEq4ADmny--18" vertex="1">
          <mxGeometry x="30" width="150" height="30" as="geometry">
            <mxRectangle width="150" height="30" as="alternateBounds" />
          </mxGeometry>
        </mxCell>
        <mxCell id="Imp9iJiyCljEq4ADmny--21" value="" style="shape=tableRow;horizontal=0;startSize=0;swimlaneHead=0;swimlaneBody=0;fillColor=none;collapsible=0;dropTarget=0;points=[[0,0.5],[1,0.5]];portConstraint=eastwest;top=0;left=0;right=0;bottom=0;fontFamily=Times New Roman;" parent="Imp9iJiyCljEq4ADmny--14" vertex="1">
          <mxGeometry y="90" width="180" height="30" as="geometry" />
        </mxCell>
        <mxCell id="Imp9iJiyCljEq4ADmny--22" value="" style="shape=partialRectangle;connectable=0;fillColor=none;top=0;left=0;bottom=0;right=0;editable=1;overflow=hidden;whiteSpace=wrap;html=1;fontFamily=Times New Roman;" parent="Imp9iJiyCljEq4ADmny--21" vertex="1">
          <mxGeometry width="30" height="30" as="geometry">
            <mxRectangle width="30" height="30" as="alternateBounds" />
          </mxGeometry>
        </mxCell>
        <mxCell id="Imp9iJiyCljEq4ADmny--23" value="Giá" style="shape=partialRectangle;connectable=0;fillColor=none;top=0;left=0;bottom=0;right=0;align=left;spacingLeft=6;overflow=hidden;whiteSpace=wrap;html=1;fontFamily=Times New Roman;" parent="Imp9iJiyCljEq4ADmny--21" vertex="1">
          <mxGeometry x="30" width="150" height="30" as="geometry">
            <mxRectangle width="150" height="30" as="alternateBounds" />
          </mxGeometry>
        </mxCell>
        <mxCell id="Imp9iJiyCljEq4ADmny--24" value="" style="shape=tableRow;horizontal=0;startSize=0;swimlaneHead=0;swimlaneBody=0;fillColor=none;collapsible=0;dropTarget=0;points=[[0,0.5],[1,0.5]];portConstraint=eastwest;top=0;left=0;right=0;bottom=0;fontFamily=Times New Roman;" parent="Imp9iJiyCljEq4ADmny--14" vertex="1">
          <mxGeometry y="120" width="180" height="30" as="geometry" />
        </mxCell>
        <mxCell id="Imp9iJiyCljEq4ADmny--25" value="" style="shape=partialRectangle;connectable=0;fillColor=none;top=0;left=0;bottom=0;right=0;editable=1;overflow=hidden;whiteSpace=wrap;html=1;fontFamily=Times New Roman;" parent="Imp9iJiyCljEq4ADmny--24" vertex="1">
          <mxGeometry width="30" height="30" as="geometry">
            <mxRectangle width="30" height="30" as="alternateBounds" />
          </mxGeometry>
        </mxCell>
        <mxCell id="Imp9iJiyCljEq4ADmny--26" value="Tính trạng" style="shape=partialRectangle;connectable=0;fillColor=none;top=0;left=0;bottom=0;right=0;align=left;spacingLeft=6;overflow=hidden;whiteSpace=wrap;html=1;fontFamily=Times New Roman;" parent="Imp9iJiyCljEq4ADmny--24" vertex="1">
          <mxGeometry x="30" width="150" height="30" as="geometry">
            <mxRectangle width="150" height="30" as="alternateBounds" />
          </mxGeometry>
        </mxCell>
        <mxCell id="Imp9iJiyCljEq4ADmny--27" value="Mua" style="shape=table;startSize=30;container=1;collapsible=1;childLayout=tableLayout;fixedRows=1;rowLines=0;fontStyle=1;align=center;resizeLast=1;html=1;whiteSpace=wrap;fontFamily=Times New Roman;fillColor=#dae8fc;strokeColor=#6c8ebf;" parent="1" vertex="1">
          <mxGeometry x="-380" y="670" width="250" height="180" as="geometry" />
        </mxCell>
        <mxCell id="Imp9iJiyCljEq4ADmny--28" value="" style="shape=tableRow;horizontal=0;startSize=0;swimlaneHead=0;swimlaneBody=0;fillColor=none;collapsible=0;dropTarget=0;points=[[0,0.5],[1,0.5]];portConstraint=eastwest;top=0;left=0;right=0;bottom=0;html=1;fontFamily=Times New Roman;" parent="Imp9iJiyCljEq4ADmny--27" vertex="1">
          <mxGeometry y="30" width="250" height="30" as="geometry" />
        </mxCell>
        <mxCell id="Imp9iJiyCljEq4ADmny--29" value="PK,FK1" style="shape=partialRectangle;connectable=0;fillColor=none;top=0;left=0;bottom=0;right=0;fontStyle=1;overflow=hidden;html=1;whiteSpace=wrap;fontFamily=Times New Roman;" parent="Imp9iJiyCljEq4ADmny--28" vertex="1">
          <mxGeometry width="60" height="30" as="geometry">
            <mxRectangle width="60" height="30" as="alternateBounds" />
          </mxGeometry>
        </mxCell>
        <mxCell id="Imp9iJiyCljEq4ADmny--30" value="Mã khách hàng&amp;nbsp;" style="shape=partialRectangle;connectable=0;fillColor=none;top=0;left=0;bottom=0;right=0;align=left;spacingLeft=6;fontStyle=5;overflow=hidden;html=1;whiteSpace=wrap;fontFamily=Times New Roman;" parent="Imp9iJiyCljEq4ADmny--28" vertex="1">
          <mxGeometry x="60" width="190" height="30" as="geometry">
            <mxRectangle width="190" height="30" as="alternateBounds" />
          </mxGeometry>
        </mxCell>
        <mxCell id="Imp9iJiyCljEq4ADmny--31" value="" style="shape=tableRow;horizontal=0;startSize=0;swimlaneHead=0;swimlaneBody=0;fillColor=none;collapsible=0;dropTarget=0;points=[[0,0.5],[1,0.5]];portConstraint=eastwest;top=0;left=0;right=0;bottom=1;html=1;fontFamily=Times New Roman;" parent="Imp9iJiyCljEq4ADmny--27" vertex="1">
          <mxGeometry y="60" width="250" height="30" as="geometry" />
        </mxCell>
        <mxCell id="Imp9iJiyCljEq4ADmny--32" value="PK,FK2" style="shape=partialRectangle;connectable=0;fillColor=none;top=0;left=0;bottom=0;right=0;fontStyle=1;overflow=hidden;html=1;whiteSpace=wrap;fontFamily=Times New Roman;" parent="Imp9iJiyCljEq4ADmny--31" vertex="1">
          <mxGeometry width="60" height="30" as="geometry">
            <mxRectangle width="60" height="30" as="alternateBounds" />
          </mxGeometry>
        </mxCell>
        <mxCell id="Imp9iJiyCljEq4ADmny--33" value="Mã mặt hàng" style="shape=partialRectangle;connectable=0;fillColor=none;top=0;left=0;bottom=0;right=0;align=left;spacingLeft=6;fontStyle=5;overflow=hidden;html=1;whiteSpace=wrap;fontFamily=Times New Roman;" parent="Imp9iJiyCljEq4ADmny--31" vertex="1">
          <mxGeometry x="60" width="190" height="30" as="geometry">
            <mxRectangle width="190" height="30" as="alternateBounds" />
          </mxGeometry>
        </mxCell>
        <mxCell id="Imp9iJiyCljEq4ADmny--34" value="" style="shape=tableRow;horizontal=0;startSize=0;swimlaneHead=0;swimlaneBody=0;fillColor=none;collapsible=0;dropTarget=0;points=[[0,0.5],[1,0.5]];portConstraint=eastwest;top=0;left=0;right=0;bottom=0;html=1;fontFamily=Times New Roman;" parent="Imp9iJiyCljEq4ADmny--27" vertex="1">
          <mxGeometry y="90" width="250" height="30" as="geometry" />
        </mxCell>
        <mxCell id="Imp9iJiyCljEq4ADmny--35" value="" style="shape=partialRectangle;connectable=0;fillColor=none;top=0;left=0;bottom=0;right=0;editable=1;overflow=hidden;html=1;whiteSpace=wrap;fontFamily=Times New Roman;" parent="Imp9iJiyCljEq4ADmny--34" vertex="1">
          <mxGeometry width="60" height="30" as="geometry">
            <mxRectangle width="60" height="30" as="alternateBounds" />
          </mxGeometry>
        </mxCell>
        <mxCell id="Imp9iJiyCljEq4ADmny--36" value="Giá mua" style="shape=partialRectangle;connectable=0;fillColor=none;top=0;left=0;bottom=0;right=0;align=left;spacingLeft=6;overflow=hidden;html=1;whiteSpace=wrap;fontFamily=Times New Roman;" parent="Imp9iJiyCljEq4ADmny--34" vertex="1">
          <mxGeometry x="60" width="190" height="30" as="geometry">
            <mxRectangle width="190" height="30" as="alternateBounds" />
          </mxGeometry>
        </mxCell>
        <mxCell id="Imp9iJiyCljEq4ADmny--37" value="" style="shape=tableRow;horizontal=0;startSize=0;swimlaneHead=0;swimlaneBody=0;fillColor=none;collapsible=0;dropTarget=0;points=[[0,0.5],[1,0.5]];portConstraint=eastwest;top=0;left=0;right=0;bottom=0;html=1;fontFamily=Times New Roman;" parent="Imp9iJiyCljEq4ADmny--27" vertex="1">
          <mxGeometry y="120" width="250" height="30" as="geometry" />
        </mxCell>
        <mxCell id="Imp9iJiyCljEq4ADmny--38" value="" style="shape=partialRectangle;connectable=0;fillColor=none;top=0;left=0;bottom=0;right=0;editable=1;overflow=hidden;html=1;whiteSpace=wrap;fontFamily=Times New Roman;" parent="Imp9iJiyCljEq4ADmny--37" vertex="1">
          <mxGeometry width="60" height="30" as="geometry">
            <mxRectangle width="60" height="30" as="alternateBounds" />
          </mxGeometry>
        </mxCell>
        <mxCell id="Imp9iJiyCljEq4ADmny--39" value="Ngày mua" style="shape=partialRectangle;connectable=0;fillColor=none;top=0;left=0;bottom=0;right=0;align=left;spacingLeft=6;overflow=hidden;html=1;whiteSpace=wrap;fontFamily=Times New Roman;" parent="Imp9iJiyCljEq4ADmny--37" vertex="1">
          <mxGeometry x="60" width="190" height="30" as="geometry">
            <mxRectangle width="190" height="30" as="alternateBounds" />
          </mxGeometry>
        </mxCell>
        <mxCell id="Imp9iJiyCljEq4ADmny--42" value="" style="shape=tableRow;horizontal=0;startSize=0;swimlaneHead=0;swimlaneBody=0;fillColor=none;collapsible=0;dropTarget=0;points=[[0,0.5],[1,0.5]];portConstraint=eastwest;top=0;left=0;right=0;bottom=0;" parent="Imp9iJiyCljEq4ADmny--27" vertex="1">
          <mxGeometry y="150" width="250" height="30" as="geometry" />
        </mxCell>
        <mxCell id="Imp9iJiyCljEq4ADmny--43" value="" style="shape=partialRectangle;connectable=0;fillColor=none;top=0;left=0;bottom=0;right=0;editable=1;overflow=hidden;" parent="Imp9iJiyCljEq4ADmny--42" vertex="1">
          <mxGeometry width="60" height="30" as="geometry">
            <mxRectangle width="60" height="30" as="alternateBounds" />
          </mxGeometry>
        </mxCell>
        <mxCell id="Imp9iJiyCljEq4ADmny--44" value="Tính trạng" style="shape=partialRectangle;connectable=0;fillColor=none;top=0;left=0;bottom=0;right=0;align=left;spacingLeft=6;overflow=hidden;" parent="Imp9iJiyCljEq4ADmny--42" vertex="1">
          <mxGeometry x="60" width="190" height="30" as="geometry">
            <mxRectangle width="190" height="30" as="alternateBounds" />
          </mxGeometry>
        </mxCell>
        <mxCell id="Imp9iJiyCljEq4ADmny--45" value="Bán" style="shape=table;startSize=30;container=1;collapsible=1;childLayout=tableLayout;fixedRows=1;rowLines=0;fontStyle=1;align=center;resizeLast=1;html=1;whiteSpace=wrap;fontFamily=Times New Roman;fillColor=#dae8fc;strokeColor=#6c8ebf;" parent="1" vertex="1">
          <mxGeometry x="-405" y="860" width="250" height="210" as="geometry" />
        </mxCell>
        <mxCell id="Imp9iJiyCljEq4ADmny--46" value="" style="shape=tableRow;horizontal=0;startSize=0;swimlaneHead=0;swimlaneBody=0;fillColor=none;collapsible=0;dropTarget=0;points=[[0,0.5],[1,0.5]];portConstraint=eastwest;top=0;left=0;right=0;bottom=0;html=1;fontFamily=Times New Roman;" parent="Imp9iJiyCljEq4ADmny--45" vertex="1">
          <mxGeometry y="30" width="250" height="30" as="geometry" />
        </mxCell>
        <mxCell id="Imp9iJiyCljEq4ADmny--47" value="PK,FK1" style="shape=partialRectangle;connectable=0;fillColor=none;top=0;left=0;bottom=0;right=0;fontStyle=1;overflow=hidden;html=1;whiteSpace=wrap;fontFamily=Times New Roman;" parent="Imp9iJiyCljEq4ADmny--46" vertex="1">
          <mxGeometry width="60" height="30" as="geometry">
            <mxRectangle width="60" height="30" as="alternateBounds" />
          </mxGeometry>
        </mxCell>
        <mxCell id="Imp9iJiyCljEq4ADmny--48" value="Mã khách hàng&amp;nbsp;" style="shape=partialRectangle;connectable=0;fillColor=none;top=0;left=0;bottom=0;right=0;align=left;spacingLeft=6;fontStyle=5;overflow=hidden;html=1;whiteSpace=wrap;fontFamily=Times New Roman;" parent="Imp9iJiyCljEq4ADmny--46" vertex="1">
          <mxGeometry x="60" width="190" height="30" as="geometry">
            <mxRectangle width="190" height="30" as="alternateBounds" />
          </mxGeometry>
        </mxCell>
        <mxCell id="Imp9iJiyCljEq4ADmny--49" value="" style="shape=tableRow;horizontal=0;startSize=0;swimlaneHead=0;swimlaneBody=0;fillColor=none;collapsible=0;dropTarget=0;points=[[0,0.5],[1,0.5]];portConstraint=eastwest;top=0;left=0;right=0;bottom=1;html=1;fontFamily=Times New Roman;" parent="Imp9iJiyCljEq4ADmny--45" vertex="1">
          <mxGeometry y="60" width="250" height="30" as="geometry" />
        </mxCell>
        <mxCell id="Imp9iJiyCljEq4ADmny--50" value="PK,FK2" style="shape=partialRectangle;connectable=0;fillColor=none;top=0;left=0;bottom=0;right=0;fontStyle=1;overflow=hidden;html=1;whiteSpace=wrap;fontFamily=Times New Roman;" parent="Imp9iJiyCljEq4ADmny--49" vertex="1">
          <mxGeometry width="60" height="30" as="geometry">
            <mxRectangle width="60" height="30" as="alternateBounds" />
          </mxGeometry>
        </mxCell>
        <mxCell id="Imp9iJiyCljEq4ADmny--51" value="Mã mặt hàng" style="shape=partialRectangle;connectable=0;fillColor=none;top=0;left=0;bottom=0;right=0;align=left;spacingLeft=6;fontStyle=5;overflow=hidden;html=1;whiteSpace=wrap;fontFamily=Times New Roman;" parent="Imp9iJiyCljEq4ADmny--49" vertex="1">
          <mxGeometry x="60" width="190" height="30" as="geometry">
            <mxRectangle width="190" height="30" as="alternateBounds" />
          </mxGeometry>
        </mxCell>
        <mxCell id="Imp9iJiyCljEq4ADmny--52" value="" style="shape=tableRow;horizontal=0;startSize=0;swimlaneHead=0;swimlaneBody=0;fillColor=none;collapsible=0;dropTarget=0;points=[[0,0.5],[1,0.5]];portConstraint=eastwest;top=0;left=0;right=0;bottom=0;html=1;fontFamily=Times New Roman;" parent="Imp9iJiyCljEq4ADmny--45" vertex="1">
          <mxGeometry y="90" width="250" height="30" as="geometry" />
        </mxCell>
        <mxCell id="Imp9iJiyCljEq4ADmny--53" value="" style="shape=partialRectangle;connectable=0;fillColor=none;top=0;left=0;bottom=0;right=0;editable=1;overflow=hidden;html=1;whiteSpace=wrap;fontFamily=Times New Roman;" parent="Imp9iJiyCljEq4ADmny--52" vertex="1">
          <mxGeometry width="60" height="30" as="geometry">
            <mxRectangle width="60" height="30" as="alternateBounds" />
          </mxGeometry>
        </mxCell>
        <mxCell id="Imp9iJiyCljEq4ADmny--54" value="Tiền hoa hồng" style="shape=partialRectangle;connectable=0;fillColor=none;top=0;left=0;bottom=0;right=0;align=left;spacingLeft=6;overflow=hidden;html=1;whiteSpace=wrap;fontFamily=Times New Roman;" parent="Imp9iJiyCljEq4ADmny--52" vertex="1">
          <mxGeometry x="60" width="190" height="30" as="geometry">
            <mxRectangle width="190" height="30" as="alternateBounds" />
          </mxGeometry>
        </mxCell>
        <mxCell id="Imp9iJiyCljEq4ADmny--55" value="" style="shape=tableRow;horizontal=0;startSize=0;swimlaneHead=0;swimlaneBody=0;fillColor=none;collapsible=0;dropTarget=0;points=[[0,0.5],[1,0.5]];portConstraint=eastwest;top=0;left=0;right=0;bottom=0;html=1;fontFamily=Times New Roman;" parent="Imp9iJiyCljEq4ADmny--45" vertex="1">
          <mxGeometry y="120" width="250" height="30" as="geometry" />
        </mxCell>
        <mxCell id="Imp9iJiyCljEq4ADmny--56" value="" style="shape=partialRectangle;connectable=0;fillColor=none;top=0;left=0;bottom=0;right=0;editable=1;overflow=hidden;html=1;whiteSpace=wrap;fontFamily=Times New Roman;" parent="Imp9iJiyCljEq4ADmny--55" vertex="1">
          <mxGeometry width="60" height="30" as="geometry">
            <mxRectangle width="60" height="30" as="alternateBounds" />
          </mxGeometry>
        </mxCell>
        <mxCell id="Imp9iJiyCljEq4ADmny--57" value="Giá bán" style="shape=partialRectangle;connectable=0;fillColor=none;top=0;left=0;bottom=0;right=0;align=left;spacingLeft=6;overflow=hidden;html=1;whiteSpace=wrap;fontFamily=Times New Roman;" parent="Imp9iJiyCljEq4ADmny--55" vertex="1">
          <mxGeometry x="60" width="190" height="30" as="geometry">
            <mxRectangle width="190" height="30" as="alternateBounds" />
          </mxGeometry>
        </mxCell>
        <mxCell id="Imp9iJiyCljEq4ADmny--58" value="" style="shape=tableRow;horizontal=0;startSize=0;swimlaneHead=0;swimlaneBody=0;fillColor=none;collapsible=0;dropTarget=0;points=[[0,0.5],[1,0.5]];portConstraint=eastwest;top=0;left=0;right=0;bottom=0;" parent="Imp9iJiyCljEq4ADmny--45" vertex="1">
          <mxGeometry y="150" width="250" height="30" as="geometry" />
        </mxCell>
        <mxCell id="Imp9iJiyCljEq4ADmny--59" value="" style="shape=partialRectangle;connectable=0;fillColor=none;top=0;left=0;bottom=0;right=0;editable=1;overflow=hidden;" parent="Imp9iJiyCljEq4ADmny--58" vertex="1">
          <mxGeometry width="60" height="30" as="geometry">
            <mxRectangle width="60" height="30" as="alternateBounds" />
          </mxGeometry>
        </mxCell>
        <mxCell id="Imp9iJiyCljEq4ADmny--60" value="Ngày bán" style="shape=partialRectangle;connectable=0;fillColor=none;top=0;left=0;bottom=0;right=0;align=left;spacingLeft=6;overflow=hidden;" parent="Imp9iJiyCljEq4ADmny--58" vertex="1">
          <mxGeometry x="60" width="190" height="30" as="geometry">
            <mxRectangle width="190" height="30" as="alternateBounds" />
          </mxGeometry>
        </mxCell>
        <mxCell id="Imp9iJiyCljEq4ADmny--61" value="" style="shape=tableRow;horizontal=0;startSize=0;swimlaneHead=0;swimlaneBody=0;fillColor=none;collapsible=0;dropTarget=0;points=[[0,0.5],[1,0.5]];portConstraint=eastwest;top=0;left=0;right=0;bottom=0;" parent="Imp9iJiyCljEq4ADmny--45" vertex="1">
          <mxGeometry y="180" width="250" height="30" as="geometry" />
        </mxCell>
        <mxCell id="Imp9iJiyCljEq4ADmny--62" value="" style="shape=partialRectangle;connectable=0;fillColor=none;top=0;left=0;bottom=0;right=0;editable=1;overflow=hidden;" parent="Imp9iJiyCljEq4ADmny--61" vertex="1">
          <mxGeometry width="60" height="30" as="geometry">
            <mxRectangle width="60" height="30" as="alternateBounds" />
          </mxGeometry>
        </mxCell>
        <mxCell id="Imp9iJiyCljEq4ADmny--63" value="Thuế" style="shape=partialRectangle;connectable=0;fillColor=none;top=0;left=0;bottom=0;right=0;align=left;spacingLeft=6;overflow=hidden;" parent="Imp9iJiyCljEq4ADmny--61" vertex="1">
          <mxGeometry x="60" width="190" height="30" as="geometry">
            <mxRectangle width="190" height="30" as="alternateBounds" />
          </mxGeometry>
        </mxCell>
        <mxCell id="Imp9iJiyCljEq4ADmny--65" value="" style="edgeStyle=orthogonalEdgeStyle;fontSize=12;html=1;endArrow=ERmandOne;startArrow=ERoneToMany;rounded=0;startSize=8;endSize=8;startFill=0;endFill=0;" parent="1" source="Imp9iJiyCljEq4ADmny--31" target="Imp9iJiyCljEq4ADmny--15" edge="1">
          <mxGeometry width="100" height="100" relative="1" as="geometry">
            <mxPoint x="120" y="630" as="sourcePoint" />
            <mxPoint x="-50" y="790" as="targetPoint" />
          </mxGeometry>
        </mxCell>
        <mxCell id="Imp9iJiyCljEq4ADmny--66" value="" style="edgeStyle=orthogonalEdgeStyle;fontSize=12;html=1;endArrow=ERmandOne;startArrow=ERoneToMany;rounded=0;startSize=8;endSize=8;endFill=0;startFill=0;" parent="1" source="Imp9iJiyCljEq4ADmny--49" target="Imp9iJiyCljEq4ADmny--15" edge="1">
          <mxGeometry width="100" height="100" relative="1" as="geometry">
            <mxPoint x="-50" y="1040" as="sourcePoint" />
            <mxPoint x="90" y="1090" as="targetPoint" />
            <Array as="points">
              <mxPoint x="-90" y="935" />
              <mxPoint x="-90" y="785" />
            </Array>
          </mxGeometry>
        </mxCell>
        <mxCell id="Imp9iJiyCljEq4ADmny--64" value="" style="fontSize=12;html=1;endArrow=ERoneToMany;startArrow=ERmandOne;rounded=0;startSize=8;endSize=8;edgeStyle=orthogonalEdgeStyle;" parent="1" source="Imp9iJiyCljEq4ADmny--2" target="Imp9iJiyCljEq4ADmny--28" edge="1">
          <mxGeometry width="100" height="100" relative="1" as="geometry">
            <mxPoint x="-490" y="750" as="sourcePoint" />
            <mxPoint x="-290" y="700" as="targetPoint" />
            <Array as="points">
              <mxPoint x="-575" y="835" />
              <mxPoint x="-575" y="715" />
            </Array>
          </mxGeometry>
        </mxCell>
        <mxCell id="Imp9iJiyCljEq4ADmny--67" value="" style="fontSize=12;html=1;endArrow=ERoneToMany;startArrow=ERmandOne;rounded=0;startSize=8;endSize=8;edgeStyle=orthogonalEdgeStyle;entryX=0;entryY=0.5;entryDx=0;entryDy=0;exitX=1;exitY=0.5;exitDx=0;exitDy=0;" parent="1" source="Imp9iJiyCljEq4ADmny--2" target="Imp9iJiyCljEq4ADmny--46" edge="1">
          <mxGeometry width="100" height="100" relative="1" as="geometry">
            <mxPoint x="-570" y="810.0000000000002" as="sourcePoint" />
            <mxPoint x="-250" y="864.9999999999998" as="targetPoint" />
            <Array as="points">
              <mxPoint x="-630" y="835" />
              <mxPoint x="-570" y="835" />
              <mxPoint x="-570" y="905" />
            </Array>
          </mxGeometry>
        </mxCell>
      </root>
    </mxGraphModel>
  </diagram>
  <diagram id="g4cpj2W1wutt5i8VEXXC" name="Bài 3">
    <mxGraphModel dx="2272" dy="2338" grid="1" gridSize="10" guides="1" tooltips="1" connect="1" arrows="1" fold="1" page="0" pageScale="1" pageWidth="827" pageHeight="1169" math="0" shadow="0">
      <root>
        <mxCell id="0" />
        <mxCell id="1" parent="0" />
        <mxCell id="MG50p32x9RY9I9HikI5l-2" style="edgeStyle=orthogonalEdgeStyle;rounded=0;orthogonalLoop=1;jettySize=auto;html=1;fontSize=12;startSize=8;endSize=8;endArrow=none;endFill=0;startArrow=ERoneToMany;startFill=0;shadow=0;" parent="1" source="9Jwa9l8fpxl0ud8WNhqp-1" target="MG50p32x9RY9I9HikI5l-1" edge="1">
          <mxGeometry relative="1" as="geometry" />
        </mxCell>
        <mxCell id="9Jwa9l8fpxl0ud8WNhqp-1" value="MÔN HỌC" style="swimlane;fontStyle=0;childLayout=stackLayout;horizontal=1;startSize=26;horizontalStack=0;resizeParent=1;resizeParentMax=0;resizeLast=0;collapsible=1;marginBottom=0;align=center;fontSize=14;fillColor=#fff2cc;gradientColor=#ffd966;strokeColor=#d6b656;" parent="1" vertex="1">
          <mxGeometry x="-1070" y="-740" width="160" height="116" as="geometry" />
        </mxCell>
        <mxCell id="9Jwa9l8fpxl0ud8WNhqp-2" value="&lt;b&gt;Mã môn học&lt;/b&gt;" style="text;strokeColor=none;fillColor=none;spacingLeft=4;spacingRight=4;overflow=hidden;rotatable=0;points=[[0,0.5],[1,0.5]];portConstraint=eastwest;fontSize=12;whiteSpace=wrap;html=1;" parent="9Jwa9l8fpxl0ud8WNhqp-1" vertex="1">
          <mxGeometry y="26" width="160" height="30" as="geometry" />
        </mxCell>
        <mxCell id="9Jwa9l8fpxl0ud8WNhqp-3" value="Tên môn học" style="text;strokeColor=none;fillColor=none;spacingLeft=4;spacingRight=4;overflow=hidden;rotatable=0;points=[[0,0.5],[1,0.5]];portConstraint=eastwest;fontSize=12;whiteSpace=wrap;html=1;" parent="9Jwa9l8fpxl0ud8WNhqp-1" vertex="1">
          <mxGeometry y="56" width="160" height="30" as="geometry" />
        </mxCell>
        <mxCell id="9Jwa9l8fpxl0ud8WNhqp-4" value="&amp;nbsp;Số tín chỉ&amp;nbsp;" style="text;strokeColor=none;fillColor=none;spacingLeft=4;spacingRight=4;overflow=hidden;rotatable=0;points=[[0,0.5],[1,0.5]];portConstraint=eastwest;fontSize=12;whiteSpace=wrap;html=1;" parent="9Jwa9l8fpxl0ud8WNhqp-1" vertex="1">
          <mxGeometry y="86" width="160" height="30" as="geometry" />
        </mxCell>
        <mxCell id="35WGFUvLpDPxxpffDpWv-7" style="edgeStyle=orthogonalEdgeStyle;rounded=0;orthogonalLoop=1;jettySize=auto;html=1;fontSize=12;startSize=8;endSize=8;endArrow=none;endFill=0;startArrow=ERzeroToMany;startFill=0;entryX=1;entryY=0.5;entryDx=0;entryDy=0;exitX=1;exitY=0.5;exitDx=0;exitDy=0;" parent="1" source="9Jwa9l8fpxl0ud8WNhqp-3" target="BJI8Upn2xMXoF3QgCFya-1" edge="1">
          <mxGeometry relative="1" as="geometry">
            <mxPoint x="-880" y="-820" as="targetPoint" />
            <mxPoint x="-680" y="-763" as="sourcePoint" />
            <Array as="points">
              <mxPoint x="-750" y="-669" />
              <mxPoint x="-750" y="-885" />
            </Array>
          </mxGeometry>
        </mxCell>
        <mxCell id="9Jwa9l8fpxl0ud8WNhqp-5" value="KHÓA HỌC" style="swimlane;fontStyle=0;childLayout=stackLayout;horizontal=1;startSize=26;horizontalStack=0;resizeParent=1;resizeParentMax=0;resizeLast=0;collapsible=1;marginBottom=0;align=center;fontSize=14;fillColor=#fff2cc;gradientColor=#ffd966;strokeColor=#d6b656;" parent="1" vertex="1">
          <mxGeometry x="-950" y="-480" width="160" height="116" as="geometry" />
        </mxCell>
        <mxCell id="9Jwa9l8fpxl0ud8WNhqp-7" value="&lt;b&gt;Mã khóa học&lt;/b&gt;" style="text;strokeColor=none;fillColor=none;spacingLeft=4;spacingRight=4;overflow=hidden;rotatable=0;points=[[0,0.5],[1,0.5]];portConstraint=eastwest;fontSize=12;whiteSpace=wrap;html=1;" parent="9Jwa9l8fpxl0ud8WNhqp-5" vertex="1">
          <mxGeometry y="26" width="160" height="30" as="geometry" />
        </mxCell>
        <mxCell id="9Jwa9l8fpxl0ud8WNhqp-9" value="Học kỳ" style="text;strokeColor=none;fillColor=none;spacingLeft=4;spacingRight=4;overflow=hidden;rotatable=0;points=[[0,0.5],[1,0.5]];portConstraint=eastwest;fontSize=12;whiteSpace=wrap;html=1;" parent="9Jwa9l8fpxl0ud8WNhqp-5" vertex="1">
          <mxGeometry y="56" width="160" height="30" as="geometry" />
        </mxCell>
        <mxCell id="BJI8Upn2xMXoF3QgCFya-6" value="Năm học" style="text;strokeColor=none;fillColor=none;spacingLeft=4;spacingRight=4;overflow=hidden;rotatable=0;points=[[0,0.5],[1,0.5]];portConstraint=eastwest;fontSize=12;whiteSpace=wrap;html=1;" parent="9Jwa9l8fpxl0ud8WNhqp-5" vertex="1">
          <mxGeometry y="86" width="160" height="30" as="geometry" />
        </mxCell>
        <mxCell id="Jg0DRUbbEBZUb9tdFLEg-2" value="" style="edgeStyle=orthogonalEdgeStyle;fontSize=12;html=1;endArrow=none;startArrow=ERzeroToMany;rounded=0;startSize=8;endSize=8;endFill=0;startFill=0;entryX=0;entryY=0.5;entryDx=0;entryDy=0;exitX=0;exitY=0.5;exitDx=0;exitDy=0;" parent="1" source="9Jwa9l8fpxl0ud8WNhqp-3" target="BJI8Upn2xMXoF3QgCFya-1" edge="1">
          <mxGeometry width="100" height="100" relative="1" as="geometry">
            <mxPoint x="-1270" y="-30" as="sourcePoint" />
            <mxPoint x="-1280" y="-580" as="targetPoint" />
            <Array as="points">
              <mxPoint x="-1170" y="-669" />
              <mxPoint x="-1170" y="-885" />
            </Array>
          </mxGeometry>
        </mxCell>
        <mxCell id="BJI8Upn2xMXoF3QgCFya-31" style="edgeStyle=orthogonalEdgeStyle;rounded=0;orthogonalLoop=1;jettySize=auto;html=1;fontSize=12;startSize=8;endSize=8;endArrow=none;endFill=0;" parent="1" source="MG50p32x9RY9I9HikI5l-1" target="BJI8Upn2xMXoF3QgCFya-30" edge="1">
          <mxGeometry relative="1" as="geometry" />
        </mxCell>
        <mxCell id="MG50p32x9RY9I9HikI5l-1" value="Lên lịch" style="shape=rhombus;perimeter=rhombusPerimeter;whiteSpace=wrap;html=1;align=center;fillColor=#fff2cc;strokeColor=#d6b656;" parent="1" vertex="1">
          <mxGeometry x="-1120" y="-565" width="120" height="60" as="geometry" />
        </mxCell>
        <mxCell id="MG50p32x9RY9I9HikI5l-3" value="" style="edgeStyle=orthogonalEdgeStyle;fontSize=12;html=1;endArrow=ERzeroToMany;endFill=0;rounded=0;startSize=8;endSize=8;" parent="1" source="MG50p32x9RY9I9HikI5l-1" target="9Jwa9l8fpxl0ud8WNhqp-5" edge="1">
          <mxGeometry width="100" height="100" relative="1" as="geometry">
            <mxPoint x="-990" y="-240" as="sourcePoint" />
            <mxPoint x="-890" y="-340" as="targetPoint" />
            <Array as="points" />
          </mxGeometry>
        </mxCell>
        <mxCell id="BJI8Upn2xMXoF3QgCFya-1" value="&lt;span style=&quot;font-size: 14px; text-wrap: nowrap;&quot;&gt;MÔN TIÊN QUYẾT&lt;/span&gt;" style="shape=rhombus;perimeter=rhombusPerimeter;whiteSpace=wrap;html=1;align=center;" parent="1" vertex="1">
          <mxGeometry x="-1120" y="-880" width="330" height="90" as="geometry" />
        </mxCell>
        <mxCell id="BJI8Upn2xMXoF3QgCFya-2" value="Không điều kiện tiên quyết&amp;nbsp;" style="text;html=1;align=center;verticalAlign=middle;resizable=0;points=[];autosize=1;strokeColor=none;fillColor=none;fontSize=16;" parent="1" vertex="1">
          <mxGeometry x="-810" y="-920" width="220" height="30" as="geometry" />
        </mxCell>
        <mxCell id="BJI8Upn2xMXoF3QgCFya-3" value="Có điều kiện tiên quyết&amp;nbsp;" style="text;html=1;align=center;verticalAlign=middle;resizable=0;points=[];autosize=1;strokeColor=none;fillColor=none;fontSize=16;" parent="1" vertex="1">
          <mxGeometry x="-1260" y="-920" width="190" height="30" as="geometry" />
        </mxCell>
        <mxCell id="BJI8Upn2xMXoF3QgCFya-7" value="MONHOC" style="shape=table;startSize=30;container=1;collapsible=1;childLayout=tableLayout;fixedRows=1;rowLines=0;fontStyle=1;align=center;resizeLast=1;html=1;fillColor=#ffe6cc;strokeColor=#d79b00;" parent="1" vertex="1">
          <mxGeometry x="-830" y="-210" width="180" height="120" as="geometry" />
        </mxCell>
        <mxCell id="BJI8Upn2xMXoF3QgCFya-8" value="" style="shape=tableRow;horizontal=0;startSize=0;swimlaneHead=0;swimlaneBody=0;fillColor=none;collapsible=0;dropTarget=0;points=[[0,0.5],[1,0.5]];portConstraint=eastwest;top=0;left=0;right=0;bottom=1;" parent="BJI8Upn2xMXoF3QgCFya-7" vertex="1">
          <mxGeometry y="30" width="180" height="30" as="geometry" />
        </mxCell>
        <mxCell id="BJI8Upn2xMXoF3QgCFya-9" value="PK" style="shape=partialRectangle;connectable=0;fillColor=none;top=0;left=0;bottom=0;right=0;fontStyle=1;overflow=hidden;whiteSpace=wrap;html=1;" parent="BJI8Upn2xMXoF3QgCFya-8" vertex="1">
          <mxGeometry width="30" height="30" as="geometry">
            <mxRectangle width="30" height="30" as="alternateBounds" />
          </mxGeometry>
        </mxCell>
        <mxCell id="BJI8Upn2xMXoF3QgCFya-10" value="Mã môn học" style="shape=partialRectangle;connectable=0;fillColor=none;top=0;left=0;bottom=0;right=0;align=left;spacingLeft=6;fontStyle=5;overflow=hidden;whiteSpace=wrap;html=1;" parent="BJI8Upn2xMXoF3QgCFya-8" vertex="1">
          <mxGeometry x="30" width="150" height="30" as="geometry">
            <mxRectangle width="150" height="30" as="alternateBounds" />
          </mxGeometry>
        </mxCell>
        <mxCell id="BJI8Upn2xMXoF3QgCFya-11" value="" style="shape=tableRow;horizontal=0;startSize=0;swimlaneHead=0;swimlaneBody=0;fillColor=none;collapsible=0;dropTarget=0;points=[[0,0.5],[1,0.5]];portConstraint=eastwest;top=0;left=0;right=0;bottom=0;" parent="BJI8Upn2xMXoF3QgCFya-7" vertex="1">
          <mxGeometry y="60" width="180" height="30" as="geometry" />
        </mxCell>
        <mxCell id="BJI8Upn2xMXoF3QgCFya-12" value="" style="shape=partialRectangle;connectable=0;fillColor=none;top=0;left=0;bottom=0;right=0;editable=1;overflow=hidden;whiteSpace=wrap;html=1;" parent="BJI8Upn2xMXoF3QgCFya-11" vertex="1">
          <mxGeometry width="30" height="30" as="geometry">
            <mxRectangle width="30" height="30" as="alternateBounds" />
          </mxGeometry>
        </mxCell>
        <mxCell id="BJI8Upn2xMXoF3QgCFya-13" value="Tên môn học" style="shape=partialRectangle;connectable=0;fillColor=none;top=0;left=0;bottom=0;right=0;align=left;spacingLeft=6;overflow=hidden;whiteSpace=wrap;html=1;" parent="BJI8Upn2xMXoF3QgCFya-11" vertex="1">
          <mxGeometry x="30" width="150" height="30" as="geometry">
            <mxRectangle width="150" height="30" as="alternateBounds" />
          </mxGeometry>
        </mxCell>
        <mxCell id="BJI8Upn2xMXoF3QgCFya-14" value="" style="shape=tableRow;horizontal=0;startSize=0;swimlaneHead=0;swimlaneBody=0;fillColor=none;collapsible=0;dropTarget=0;points=[[0,0.5],[1,0.5]];portConstraint=eastwest;top=0;left=0;right=0;bottom=0;" parent="BJI8Upn2xMXoF3QgCFya-7" vertex="1">
          <mxGeometry y="90" width="180" height="30" as="geometry" />
        </mxCell>
        <mxCell id="BJI8Upn2xMXoF3QgCFya-15" value="" style="shape=partialRectangle;connectable=0;fillColor=none;top=0;left=0;bottom=0;right=0;editable=1;overflow=hidden;whiteSpace=wrap;html=1;" parent="BJI8Upn2xMXoF3QgCFya-14" vertex="1">
          <mxGeometry width="30" height="30" as="geometry">
            <mxRectangle width="30" height="30" as="alternateBounds" />
          </mxGeometry>
        </mxCell>
        <mxCell id="BJI8Upn2xMXoF3QgCFya-16" value="Số tín chỉ" style="shape=partialRectangle;connectable=0;fillColor=none;top=0;left=0;bottom=0;right=0;align=left;spacingLeft=6;overflow=hidden;whiteSpace=wrap;html=1;" parent="BJI8Upn2xMXoF3QgCFya-14" vertex="1">
          <mxGeometry x="30" width="150" height="30" as="geometry">
            <mxRectangle width="150" height="30" as="alternateBounds" />
          </mxGeometry>
        </mxCell>
        <mxCell id="BJI8Upn2xMXoF3QgCFya-20" value="KHOAHOC" style="shape=table;startSize=30;container=1;collapsible=1;childLayout=tableLayout;fixedRows=1;rowLines=0;fontStyle=1;align=center;resizeLast=1;html=1;fillColor=#ffe6cc;strokeColor=#d79b00;" parent="1" vertex="1">
          <mxGeometry x="-1160" y="-70" width="180" height="120" as="geometry" />
        </mxCell>
        <mxCell id="BJI8Upn2xMXoF3QgCFya-21" value="" style="shape=tableRow;horizontal=0;startSize=0;swimlaneHead=0;swimlaneBody=0;fillColor=none;collapsible=0;dropTarget=0;points=[[0,0.5],[1,0.5]];portConstraint=eastwest;top=0;left=0;right=0;bottom=1;" parent="BJI8Upn2xMXoF3QgCFya-20" vertex="1">
          <mxGeometry y="30" width="180" height="30" as="geometry" />
        </mxCell>
        <mxCell id="BJI8Upn2xMXoF3QgCFya-22" value="PK" style="shape=partialRectangle;connectable=0;fillColor=none;top=0;left=0;bottom=0;right=0;fontStyle=1;overflow=hidden;whiteSpace=wrap;html=1;" parent="BJI8Upn2xMXoF3QgCFya-21" vertex="1">
          <mxGeometry width="30" height="30" as="geometry">
            <mxRectangle width="30" height="30" as="alternateBounds" />
          </mxGeometry>
        </mxCell>
        <mxCell id="BJI8Upn2xMXoF3QgCFya-23" value="Mã khóa học" style="shape=partialRectangle;connectable=0;fillColor=none;top=0;left=0;bottom=0;right=0;align=left;spacingLeft=6;fontStyle=5;overflow=hidden;whiteSpace=wrap;html=1;" parent="BJI8Upn2xMXoF3QgCFya-21" vertex="1">
          <mxGeometry x="30" width="150" height="30" as="geometry">
            <mxRectangle width="150" height="30" as="alternateBounds" />
          </mxGeometry>
        </mxCell>
        <mxCell id="BJI8Upn2xMXoF3QgCFya-24" value="" style="shape=tableRow;horizontal=0;startSize=0;swimlaneHead=0;swimlaneBody=0;fillColor=none;collapsible=0;dropTarget=0;points=[[0,0.5],[1,0.5]];portConstraint=eastwest;top=0;left=0;right=0;bottom=0;" parent="BJI8Upn2xMXoF3QgCFya-20" vertex="1">
          <mxGeometry y="60" width="180" height="30" as="geometry" />
        </mxCell>
        <mxCell id="BJI8Upn2xMXoF3QgCFya-25" value="" style="shape=partialRectangle;connectable=0;fillColor=none;top=0;left=0;bottom=0;right=0;editable=1;overflow=hidden;whiteSpace=wrap;html=1;" parent="BJI8Upn2xMXoF3QgCFya-24" vertex="1">
          <mxGeometry width="30" height="30" as="geometry">
            <mxRectangle width="30" height="30" as="alternateBounds" />
          </mxGeometry>
        </mxCell>
        <mxCell id="BJI8Upn2xMXoF3QgCFya-26" value="Học kì" style="shape=partialRectangle;connectable=0;fillColor=none;top=0;left=0;bottom=0;right=0;align=left;spacingLeft=6;overflow=hidden;whiteSpace=wrap;html=1;" parent="BJI8Upn2xMXoF3QgCFya-24" vertex="1">
          <mxGeometry x="30" width="150" height="30" as="geometry">
            <mxRectangle width="150" height="30" as="alternateBounds" />
          </mxGeometry>
        </mxCell>
        <mxCell id="BJI8Upn2xMXoF3QgCFya-27" value="" style="shape=tableRow;horizontal=0;startSize=0;swimlaneHead=0;swimlaneBody=0;fillColor=none;collapsible=0;dropTarget=0;points=[[0,0.5],[1,0.5]];portConstraint=eastwest;top=0;left=0;right=0;bottom=0;" parent="BJI8Upn2xMXoF3QgCFya-20" vertex="1">
          <mxGeometry y="90" width="180" height="30" as="geometry" />
        </mxCell>
        <mxCell id="BJI8Upn2xMXoF3QgCFya-28" value="" style="shape=partialRectangle;connectable=0;fillColor=none;top=0;left=0;bottom=0;right=0;editable=1;overflow=hidden;whiteSpace=wrap;html=1;" parent="BJI8Upn2xMXoF3QgCFya-27" vertex="1">
          <mxGeometry width="30" height="30" as="geometry">
            <mxRectangle width="30" height="30" as="alternateBounds" />
          </mxGeometry>
        </mxCell>
        <mxCell id="BJI8Upn2xMXoF3QgCFya-29" value="Năm học" style="shape=partialRectangle;connectable=0;fillColor=none;top=0;left=0;bottom=0;right=0;align=left;spacingLeft=6;overflow=hidden;whiteSpace=wrap;html=1;" parent="BJI8Upn2xMXoF3QgCFya-27" vertex="1">
          <mxGeometry x="30" width="150" height="30" as="geometry">
            <mxRectangle width="150" height="30" as="alternateBounds" />
          </mxGeometry>
        </mxCell>
        <mxCell id="BJI8Upn2xMXoF3QgCFya-30" value="Ngày bắt đầu" style="ellipse;whiteSpace=wrap;html=1;" parent="1" vertex="1">
          <mxGeometry x="-1250" y="-470" width="120" height="50" as="geometry" />
        </mxCell>
        <mxCell id="BJI8Upn2xMXoF3QgCFya-33" value="LENLICH" style="shape=table;startSize=30;container=1;collapsible=1;childLayout=tableLayout;fixedRows=1;rowLines=0;fontStyle=1;align=center;resizeLast=1;html=1;whiteSpace=wrap;fillColor=#ffe6cc;strokeColor=#d79b00;" parent="1" vertex="1">
          <mxGeometry x="-840" y="-30" width="180" height="120" as="geometry" />
        </mxCell>
        <mxCell id="BJI8Upn2xMXoF3QgCFya-34" value="" style="shape=tableRow;horizontal=0;startSize=0;swimlaneHead=0;swimlaneBody=0;fillColor=none;collapsible=0;dropTarget=0;points=[[0,0.5],[1,0.5]];portConstraint=eastwest;top=0;left=0;right=0;bottom=0;html=1;" parent="BJI8Upn2xMXoF3QgCFya-33" vertex="1">
          <mxGeometry y="30" width="180" height="30" as="geometry" />
        </mxCell>
        <mxCell id="BJI8Upn2xMXoF3QgCFya-35" value="PK,FK1" style="shape=partialRectangle;connectable=0;fillColor=none;top=0;left=0;bottom=0;right=0;fontStyle=1;overflow=hidden;html=1;whiteSpace=wrap;" parent="BJI8Upn2xMXoF3QgCFya-34" vertex="1">
          <mxGeometry width="60" height="30" as="geometry">
            <mxRectangle width="60" height="30" as="alternateBounds" />
          </mxGeometry>
        </mxCell>
        <mxCell id="BJI8Upn2xMXoF3QgCFya-36" value="Mã môn học&amp;nbsp;" style="shape=partialRectangle;connectable=0;fillColor=none;top=0;left=0;bottom=0;right=0;align=left;spacingLeft=6;fontStyle=5;overflow=hidden;html=1;whiteSpace=wrap;" parent="BJI8Upn2xMXoF3QgCFya-34" vertex="1">
          <mxGeometry x="60" width="120" height="30" as="geometry">
            <mxRectangle width="120" height="30" as="alternateBounds" />
          </mxGeometry>
        </mxCell>
        <mxCell id="BJI8Upn2xMXoF3QgCFya-37" value="" style="shape=tableRow;horizontal=0;startSize=0;swimlaneHead=0;swimlaneBody=0;fillColor=none;collapsible=0;dropTarget=0;points=[[0,0.5],[1,0.5]];portConstraint=eastwest;top=0;left=0;right=0;bottom=1;html=1;" parent="BJI8Upn2xMXoF3QgCFya-33" vertex="1">
          <mxGeometry y="60" width="180" height="30" as="geometry" />
        </mxCell>
        <mxCell id="BJI8Upn2xMXoF3QgCFya-38" value="PK,FK2" style="shape=partialRectangle;connectable=0;fillColor=none;top=0;left=0;bottom=0;right=0;fontStyle=1;overflow=hidden;html=1;whiteSpace=wrap;" parent="BJI8Upn2xMXoF3QgCFya-37" vertex="1">
          <mxGeometry width="60" height="30" as="geometry">
            <mxRectangle width="60" height="30" as="alternateBounds" />
          </mxGeometry>
        </mxCell>
        <mxCell id="BJI8Upn2xMXoF3QgCFya-39" value="Mã khóa học" style="shape=partialRectangle;connectable=0;fillColor=none;top=0;left=0;bottom=0;right=0;align=left;spacingLeft=6;fontStyle=5;overflow=hidden;html=1;whiteSpace=wrap;" parent="BJI8Upn2xMXoF3QgCFya-37" vertex="1">
          <mxGeometry x="60" width="120" height="30" as="geometry">
            <mxRectangle width="120" height="30" as="alternateBounds" />
          </mxGeometry>
        </mxCell>
        <mxCell id="BJI8Upn2xMXoF3QgCFya-40" value="" style="shape=tableRow;horizontal=0;startSize=0;swimlaneHead=0;swimlaneBody=0;fillColor=none;collapsible=0;dropTarget=0;points=[[0,0.5],[1,0.5]];portConstraint=eastwest;top=0;left=0;right=0;bottom=0;html=1;" parent="BJI8Upn2xMXoF3QgCFya-33" vertex="1">
          <mxGeometry y="90" width="180" height="30" as="geometry" />
        </mxCell>
        <mxCell id="BJI8Upn2xMXoF3QgCFya-41" value="" style="shape=partialRectangle;connectable=0;fillColor=none;top=0;left=0;bottom=0;right=0;editable=1;overflow=hidden;html=1;whiteSpace=wrap;" parent="BJI8Upn2xMXoF3QgCFya-40" vertex="1">
          <mxGeometry width="60" height="30" as="geometry">
            <mxRectangle width="60" height="30" as="alternateBounds" />
          </mxGeometry>
        </mxCell>
        <mxCell id="BJI8Upn2xMXoF3QgCFya-42" value="Ngày bắt đầu" style="shape=partialRectangle;connectable=0;fillColor=none;top=0;left=0;bottom=0;right=0;align=left;spacingLeft=6;overflow=hidden;html=1;whiteSpace=wrap;" parent="BJI8Upn2xMXoF3QgCFya-40" vertex="1">
          <mxGeometry x="60" width="120" height="30" as="geometry">
            <mxRectangle width="120" height="30" as="alternateBounds" />
          </mxGeometry>
        </mxCell>
        <mxCell id="BJI8Upn2xMXoF3QgCFya-46" style="edgeStyle=orthogonalEdgeStyle;rounded=0;orthogonalLoop=1;jettySize=auto;html=1;fontSize=12;startSize=8;endSize=8;startArrow=ERmandOne;startFill=0;endArrow=ERzeroToMany;endFill=0;entryX=1;entryY=0.5;entryDx=0;entryDy=0;" parent="1" source="BJI8Upn2xMXoF3QgCFya-8" target="BJI8Upn2xMXoF3QgCFya-34" edge="1">
          <mxGeometry relative="1" as="geometry">
            <mxPoint x="-400" y="-20" as="targetPoint" />
            <Array as="points">
              <mxPoint x="-630" y="-165" />
              <mxPoint x="-630" y="15" />
            </Array>
          </mxGeometry>
        </mxCell>
        <mxCell id="BJI8Upn2xMXoF3QgCFya-47" style="edgeStyle=orthogonalEdgeStyle;rounded=0;orthogonalLoop=1;jettySize=auto;html=1;fontSize=12;startSize=8;endSize=8;startArrow=ERmandOne;startFill=0;endArrow=ERzeroToMany;endFill=0;entryX=0;entryY=0.5;entryDx=0;entryDy=0;exitX=1;exitY=0.5;exitDx=0;exitDy=0;" parent="1" source="BJI8Upn2xMXoF3QgCFya-21" target="BJI8Upn2xMXoF3QgCFya-37" edge="1">
          <mxGeometry relative="1" as="geometry">
            <mxPoint x="-290" y="-390" as="sourcePoint" />
            <mxPoint x="-220" y="-180" as="targetPoint" />
            <Array as="points">
              <mxPoint x="-920" y="-25" />
              <mxPoint x="-920" y="45" />
            </Array>
          </mxGeometry>
        </mxCell>
        <mxCell id="BJI8Upn2xMXoF3QgCFya-48" value="&lt;b&gt;Khóa ngoại:&lt;/b&gt; quan hệ nhiều&amp;nbsp;&lt;div&gt;&lt;b&gt;khóa chính :&lt;/b&gt; quan hệ 1&lt;/div&gt;" style="whiteSpace=wrap;html=1;strokeWidth=5;" parent="1" vertex="1">
          <mxGeometry x="-210" y="-640" width="170" height="110" as="geometry" />
        </mxCell>
        <mxCell id="BJI8Upn2xMXoF3QgCFya-67" value="" style="edgeStyle=orthogonalEdgeStyle;fontSize=12;html=1;endArrow=ERmandOne;endFill=0;rounded=0;startSize=8;endSize=8;entryX=0;entryY=0.5;entryDx=0;entryDy=0;startArrow=ERzeroToMany;startFill=0;" parent="1" source="BJI8Upn2xMXoF3QgCFya-68" target="BJI8Upn2xMXoF3QgCFya-8" edge="1">
          <mxGeometry width="100" height="100" relative="1" as="geometry">
            <mxPoint x="-1024.9999999999998" y="-200" as="sourcePoint" />
            <mxPoint x="-730" y="-251" as="targetPoint" />
            <Array as="points">
              <mxPoint x="-900" y="-130" />
              <mxPoint x="-900" y="-165" />
            </Array>
          </mxGeometry>
        </mxCell>
        <mxCell id="BJI8Upn2xMXoF3QgCFya-68" value="&lt;span style=&quot;font-size: 14px; font-weight: 400; text-wrap: nowrap;&quot;&gt;MONTIENQUYET&lt;/span&gt;" style="shape=table;startSize=30;container=1;collapsible=1;childLayout=tableLayout;fixedRows=1;rowLines=0;fontStyle=1;align=center;resizeLast=1;html=1;whiteSpace=wrap;fillColor=#e1d5e7;strokeColor=#9673a6;" parent="1" vertex="1">
          <mxGeometry x="-1250" y="-195" width="290" height="90" as="geometry" />
        </mxCell>
        <mxCell id="BJI8Upn2xMXoF3QgCFya-69" value="" style="shape=tableRow;horizontal=0;startSize=0;swimlaneHead=0;swimlaneBody=0;fillColor=none;collapsible=0;dropTarget=0;points=[[0,0.5],[1,0.5]];portConstraint=eastwest;top=0;left=0;right=0;bottom=0;html=1;" parent="BJI8Upn2xMXoF3QgCFya-68" vertex="1">
          <mxGeometry y="30" width="290" height="30" as="geometry" />
        </mxCell>
        <mxCell id="BJI8Upn2xMXoF3QgCFya-70" value="PK,FK1" style="shape=partialRectangle;connectable=0;fillColor=none;top=0;left=0;bottom=0;right=0;fontStyle=1;overflow=hidden;html=1;whiteSpace=wrap;" parent="BJI8Upn2xMXoF3QgCFya-69" vertex="1">
          <mxGeometry width="60" height="30" as="geometry">
            <mxRectangle width="60" height="30" as="alternateBounds" />
          </mxGeometry>
        </mxCell>
        <mxCell id="BJI8Upn2xMXoF3QgCFya-71" value="&lt;span style=&quot;font-size: 16px; font-weight: 400; text-align: center; text-wrap: nowrap;&quot;&gt;Có điều kiện tiên quyết&amp;nbsp;&lt;/span&gt;" style="shape=partialRectangle;connectable=0;fillColor=none;top=0;left=0;bottom=0;right=0;align=left;spacingLeft=6;fontStyle=5;overflow=hidden;html=1;whiteSpace=wrap;" parent="BJI8Upn2xMXoF3QgCFya-69" vertex="1">
          <mxGeometry x="60" width="230" height="30" as="geometry">
            <mxRectangle width="230" height="30" as="alternateBounds" />
          </mxGeometry>
        </mxCell>
        <mxCell id="BJI8Upn2xMXoF3QgCFya-72" value="" style="shape=tableRow;horizontal=0;startSize=0;swimlaneHead=0;swimlaneBody=0;fillColor=none;collapsible=0;dropTarget=0;points=[[0,0.5],[1,0.5]];portConstraint=eastwest;top=0;left=0;right=0;bottom=1;html=1;" parent="BJI8Upn2xMXoF3QgCFya-68" vertex="1">
          <mxGeometry y="60" width="290" height="30" as="geometry" />
        </mxCell>
        <mxCell id="BJI8Upn2xMXoF3QgCFya-73" value="PK,FK2" style="shape=partialRectangle;connectable=0;fillColor=none;top=0;left=0;bottom=0;right=0;fontStyle=1;overflow=hidden;html=1;whiteSpace=wrap;" parent="BJI8Upn2xMXoF3QgCFya-72" vertex="1">
          <mxGeometry width="60" height="30" as="geometry">
            <mxRectangle width="60" height="30" as="alternateBounds" />
          </mxGeometry>
        </mxCell>
        <mxCell id="BJI8Upn2xMXoF3QgCFya-74" value="&lt;span style=&quot;font-size: 16px; font-weight: 400; text-align: center; text-wrap: nowrap;&quot;&gt;Không có điều kiện tiên quyết&amp;nbsp;&lt;/span&gt;" style="shape=partialRectangle;connectable=0;fillColor=none;top=0;left=0;bottom=0;right=0;align=left;spacingLeft=6;fontStyle=5;overflow=hidden;html=1;whiteSpace=wrap;" parent="BJI8Upn2xMXoF3QgCFya-72" vertex="1">
          <mxGeometry x="60" width="230" height="30" as="geometry">
            <mxRectangle width="230" height="30" as="alternateBounds" />
          </mxGeometry>
        </mxCell>
      </root>
    </mxGraphModel>
  </diagram>
  <diagram id="O2cNOcjsc8n_PMXDgFDO" name="Bài 4">
    <mxGraphModel dx="1329" dy="1194" grid="1" gridSize="10" guides="1" tooltips="1" connect="1" arrows="1" fold="1" page="0" pageScale="1" pageWidth="827" pageHeight="1169" math="0" shadow="0">
      <root>
        <mxCell id="0" />
        <mxCell id="1" parent="0" />
        <mxCell id="W-aGCR4i-0r2VvymmX0O-1" value="-chuyến bay: thành phố, đơn giá vé, thời gian, loại máy bay, mã phi công, mã hành khách,&amp;nbsp;&lt;div&gt;-hành khách :&amp;nbsp;&lt;br&gt;&lt;div&gt;&amp;nbsp;&lt;/div&gt;&lt;/div&gt;" style="rounded=0;whiteSpace=wrap;html=1;horizontal=1;align=left;verticalAlign=top;fontFamily=Times New Roman;" parent="1" vertex="1">
          <mxGeometry x="-10" y="-230" width="220" height="170" as="geometry" />
        </mxCell>
        <mxCell id="yzoamSTQ4k_LrmFpl3Te-1" value="FLIGHT" style="swimlane;fontStyle=0;childLayout=stackLayout;horizontal=1;startSize=30;horizontalStack=0;resizeParent=1;resizeParentMax=0;resizeLast=0;collapsible=1;marginBottom=0;whiteSpace=wrap;html=1;fillColor=#d5e8d4;strokeColor=#82b366;fontFamily=Times New Roman;" vertex="1" parent="1">
          <mxGeometry x="-440" y="60" width="190" height="180" as="geometry" />
        </mxCell>
        <mxCell id="yzoamSTQ4k_LrmFpl3Te-2" value="&lt;b style=&quot;font-size: 16px;&quot;&gt;&lt;u style=&quot;font-size: 16px;&quot;&gt;&lt;span style=&quot;text-align: center; font-size: 16px;&quot;&gt;FLIGHT&lt;/span&gt;&amp;nbsp;ID (PK)&lt;/u&gt;&lt;/b&gt;" style="text;strokeColor=none;fillColor=none;align=left;verticalAlign=middle;spacingLeft=4;spacingRight=4;overflow=hidden;points=[[0,0.5],[1,0.5]];portConstraint=eastwest;rotatable=0;whiteSpace=wrap;html=1;fontFamily=Times New Roman;fontSize=16;" vertex="1" parent="yzoamSTQ4k_LrmFpl3Te-1">
          <mxGeometry y="30" width="190" height="30" as="geometry" />
        </mxCell>
        <mxCell id="yzoamSTQ4k_LrmFpl3Te-3" value="Departure City" style="text;strokeColor=none;fillColor=none;align=left;verticalAlign=middle;spacingLeft=4;spacingRight=4;overflow=hidden;points=[[0,0.5],[1,0.5]];portConstraint=eastwest;rotatable=0;whiteSpace=wrap;html=1;fontFamily=Times New Roman;fontSize=16;" vertex="1" parent="yzoamSTQ4k_LrmFpl3Te-1">
          <mxGeometry y="60" width="190" height="30" as="geometry" />
        </mxCell>
        <mxCell id="yzoamSTQ4k_LrmFpl3Te-4" value="Arrival City" style="text;strokeColor=none;fillColor=none;align=left;verticalAlign=middle;spacingLeft=4;spacingRight=4;overflow=hidden;points=[[0,0.5],[1,0.5]];portConstraint=eastwest;rotatable=0;whiteSpace=wrap;html=1;fontFamily=Times New Roman;fontSize=16;" vertex="1" parent="yzoamSTQ4k_LrmFpl3Te-1">
          <mxGeometry y="90" width="190" height="30" as="geometry" />
        </mxCell>
        <mxCell id="yzoamSTQ4k_LrmFpl3Te-13" value="Ticket Price" style="text;strokeColor=none;fillColor=none;align=left;verticalAlign=middle;spacingLeft=4;spacingRight=4;overflow=hidden;points=[[0,0.5],[1,0.5]];portConstraint=eastwest;rotatable=0;whiteSpace=wrap;html=1;fontFamily=Times New Roman;fontSize=16;" vertex="1" parent="yzoamSTQ4k_LrmFpl3Te-1">
          <mxGeometry y="120" width="190" height="30" as="geometry" />
        </mxCell>
        <mxCell id="yzoamSTQ4k_LrmFpl3Te-12" value="Flight Duration" style="text;strokeColor=none;fillColor=none;align=left;verticalAlign=middle;spacingLeft=4;spacingRight=4;overflow=hidden;points=[[0,0.5],[1,0.5]];portConstraint=eastwest;rotatable=0;whiteSpace=wrap;html=1;fontFamily=Times New Roman;fontSize=16;" vertex="1" parent="yzoamSTQ4k_LrmFpl3Te-1">
          <mxGeometry y="150" width="190" height="30" as="geometry" />
        </mxCell>
        <mxCell id="yzoamSTQ4k_LrmFpl3Te-5" value="Trường hợp 1" style="whiteSpace=wrap;html=1;strokeWidth=5;fontFamily=Times New Roman;" vertex="1" parent="1">
          <mxGeometry x="-330" y="-70" width="120" height="60" as="geometry" />
        </mxCell>
        <mxCell id="yzoamSTQ4k_LrmFpl3Te-6" value="&lt;span style=&quot;font-size: 12px;&quot;&gt;CUSTOMER&lt;/span&gt;" style="swimlane;fontStyle=0;childLayout=stackLayout;horizontal=1;startSize=30;horizontalStack=0;resizeParent=1;resizeParentMax=0;resizeLast=0;collapsible=1;marginBottom=0;whiteSpace=wrap;html=1;fillColor=#dae8fc;strokeColor=#6c8ebf;fontFamily=Times New Roman;" vertex="1" parent="1">
          <mxGeometry x="-110" y="60" width="200" height="150" as="geometry" />
        </mxCell>
        <mxCell id="yzoamSTQ4k_LrmFpl3Te-7" value="&lt;b style=&quot;font-size: 16px;&quot;&gt;&lt;u style=&quot;font-size: 16px;&quot;&gt;CUSTOMER ID (PK)&lt;/u&gt;&lt;/b&gt;" style="text;strokeColor=none;fillColor=none;align=left;verticalAlign=middle;spacingLeft=4;spacingRight=4;overflow=hidden;points=[[0,0.5],[1,0.5]];portConstraint=eastwest;rotatable=0;whiteSpace=wrap;html=1;fontFamily=Times New Roman;fontSize=16;" vertex="1" parent="yzoamSTQ4k_LrmFpl3Te-6">
          <mxGeometry y="30" width="200" height="30" as="geometry" />
        </mxCell>
        <mxCell id="yzoamSTQ4k_LrmFpl3Te-8" value="Full name" style="text;strokeColor=none;fillColor=none;align=left;verticalAlign=middle;spacingLeft=4;spacingRight=4;overflow=hidden;points=[[0,0.5],[1,0.5]];portConstraint=eastwest;rotatable=0;whiteSpace=wrap;html=1;fontFamily=Times New Roman;fontSize=16;" vertex="1" parent="yzoamSTQ4k_LrmFpl3Te-6">
          <mxGeometry y="60" width="200" height="30" as="geometry" />
        </mxCell>
        <mxCell id="yzoamSTQ4k_LrmFpl3Te-9" value="Date of birth" style="text;strokeColor=none;fillColor=none;align=left;verticalAlign=middle;spacingLeft=4;spacingRight=4;overflow=hidden;points=[[0,0.5],[1,0.5]];portConstraint=eastwest;rotatable=0;whiteSpace=wrap;html=1;fontFamily=Times New Roman;fontSize=16;" vertex="1" parent="yzoamSTQ4k_LrmFpl3Te-6">
          <mxGeometry y="90" width="200" height="30" as="geometry" />
        </mxCell>
        <mxCell id="yzoamSTQ4k_LrmFpl3Te-23" value="Gender" style="text;strokeColor=none;fillColor=none;align=left;verticalAlign=middle;spacingLeft=4;spacingRight=4;overflow=hidden;points=[[0,0.5],[1,0.5]];portConstraint=eastwest;rotatable=0;whiteSpace=wrap;html=1;fontFamily=Times New Roman;fontSize=16;" vertex="1" parent="yzoamSTQ4k_LrmFpl3Te-6">
          <mxGeometry y="120" width="200" height="30" as="geometry" />
        </mxCell>
        <mxCell id="yzoamSTQ4k_LrmFpl3Te-14" value="FLIGHTROUTE" style="swimlane;fontStyle=0;childLayout=stackLayout;horizontal=1;startSize=30;horizontalStack=0;resizeParent=1;resizeParentMax=0;resizeLast=0;collapsible=1;marginBottom=0;whiteSpace=wrap;html=1;fillColor=#fff2cc;strokeColor=#d6b656;fontFamily=Times New Roman;" vertex="1" parent="1">
          <mxGeometry x="-440" y="290" width="190" height="180" as="geometry" />
        </mxCell>
        <mxCell id="yzoamSTQ4k_LrmFpl3Te-15" value="&lt;b style=&quot;font-size: 16px;&quot;&gt;&lt;u style=&quot;font-size: 16px;&quot;&gt;FLIGHT ROUTE ID (PK)&lt;/u&gt;&lt;/b&gt;" style="text;strokeColor=none;fillColor=none;align=left;verticalAlign=middle;spacingLeft=4;spacingRight=4;overflow=hidden;points=[[0,0.5],[1,0.5]];portConstraint=eastwest;rotatable=0;whiteSpace=wrap;html=1;fontFamily=Times New Roman;fontSize=16;" vertex="1" parent="yzoamSTQ4k_LrmFpl3Te-14">
          <mxGeometry y="30" width="190" height="30" as="geometry" />
        </mxCell>
        <mxCell id="yzoamSTQ4k_LrmFpl3Te-16" value="Pilot" style="text;strokeColor=none;fillColor=none;align=left;verticalAlign=middle;spacingLeft=4;spacingRight=4;overflow=hidden;points=[[0,0.5],[1,0.5]];portConstraint=eastwest;rotatable=0;whiteSpace=wrap;html=1;fontFamily=Times New Roman;fontSize=16;" vertex="1" parent="yzoamSTQ4k_LrmFpl3Te-14">
          <mxGeometry y="60" width="190" height="30" as="geometry" />
        </mxCell>
        <mxCell id="yzoamSTQ4k_LrmFpl3Te-17" value="Customer" style="text;strokeColor=none;fillColor=none;align=left;verticalAlign=middle;spacingLeft=4;spacingRight=4;overflow=hidden;points=[[0,0.5],[1,0.5]];portConstraint=eastwest;rotatable=0;whiteSpace=wrap;html=1;fontFamily=Times New Roman;fontSize=16;" vertex="1" parent="yzoamSTQ4k_LrmFpl3Te-14">
          <mxGeometry y="90" width="190" height="30" as="geometry" />
        </mxCell>
        <mxCell id="yzoamSTQ4k_LrmFpl3Te-18" value="Unit price" style="text;strokeColor=none;fillColor=none;align=left;verticalAlign=middle;spacingLeft=4;spacingRight=4;overflow=hidden;points=[[0,0.5],[1,0.5]];portConstraint=eastwest;rotatable=0;whiteSpace=wrap;html=1;fontFamily=Times New Roman;fontSize=16;" vertex="1" parent="yzoamSTQ4k_LrmFpl3Te-14">
          <mxGeometry y="120" width="190" height="30" as="geometry" />
        </mxCell>
        <mxCell id="yzoamSTQ4k_LrmFpl3Te-19" value="&lt;span style=&quot;font-size: 16px;&quot;&gt;Flight hours&amp;nbsp;&lt;/span&gt;number" style="text;strokeColor=none;fillColor=none;align=left;verticalAlign=middle;spacingLeft=4;spacingRight=4;overflow=hidden;points=[[0,0.5],[1,0.5]];portConstraint=eastwest;rotatable=0;whiteSpace=wrap;html=1;fontFamily=Times New Roman;fontSize=16;" vertex="1" parent="yzoamSTQ4k_LrmFpl3Te-14">
          <mxGeometry y="150" width="190" height="30" as="geometry" />
        </mxCell>
        <mxCell id="yzoamSTQ4k_LrmFpl3Te-20" value="Tuyến bay" style="text;html=1;align=center;verticalAlign=middle;resizable=0;points=[];autosize=1;strokeColor=#d6b656;fillColor=#fff2cc;fontSize=16;fontFamily=Times New Roman;" vertex="1" parent="1">
          <mxGeometry x="-390" y="260" width="90" height="30" as="geometry" />
        </mxCell>
        <mxCell id="yzoamSTQ4k_LrmFpl3Te-21" value="Chuyến bay" style="text;html=1;align=center;verticalAlign=middle;resizable=0;points=[];autosize=1;strokeColor=#82b366;fillColor=#d5e8d4;fontSize=16;fontFamily=Times New Roman;" vertex="1" parent="1">
          <mxGeometry x="-395" y="30" width="100" height="30" as="geometry" />
        </mxCell>
        <mxCell id="yzoamSTQ4k_LrmFpl3Te-22" value="Khách hàng" style="text;html=1;align=center;verticalAlign=middle;resizable=0;points=[];autosize=1;strokeColor=#6c8ebf;fillColor=#dae8fc;fontSize=16;fontFamily=Times New Roman;" vertex="1" parent="1">
          <mxGeometry x="-60" y="30" width="100" height="30" as="geometry" />
        </mxCell>
        <mxCell id="yzoamSTQ4k_LrmFpl3Te-24" value="Flying Unit" style="swimlane;fontStyle=0;childLayout=stackLayout;horizontal=1;startSize=30;horizontalStack=0;resizeParent=1;resizeParentMax=0;resizeLast=0;collapsible=1;marginBottom=0;whiteSpace=wrap;html=1;fillColor=#f8cecc;strokeColor=#b85450;shadow=0;rounded=0;glass=0;" vertex="1" parent="1">
          <mxGeometry x="-200" y="260" width="140" height="90" as="geometry" />
        </mxCell>
        <mxCell id="yzoamSTQ4k_LrmFpl3Te-25" value="&lt;b&gt;&lt;u&gt;Unit ID (PK)&lt;/u&gt;&lt;/b&gt;" style="text;strokeColor=none;fillColor=none;align=left;verticalAlign=middle;spacingLeft=4;spacingRight=4;overflow=hidden;points=[[0,0.5],[1,0.5]];portConstraint=eastwest;rotatable=0;whiteSpace=wrap;html=1;" vertex="1" parent="yzoamSTQ4k_LrmFpl3Te-24">
          <mxGeometry y="30" width="140" height="30" as="geometry" />
        </mxCell>
        <mxCell id="yzoamSTQ4k_LrmFpl3Te-26" value="Unit Name" style="text;strokeColor=none;fillColor=none;align=left;verticalAlign=middle;spacingLeft=4;spacingRight=4;overflow=hidden;points=[[0,0.5],[1,0.5]];portConstraint=eastwest;rotatable=0;whiteSpace=wrap;html=1;" vertex="1" parent="yzoamSTQ4k_LrmFpl3Te-24">
          <mxGeometry y="60" width="140" height="30" as="geometry" />
        </mxCell>
        <mxCell id="yzoamSTQ4k_LrmFpl3Te-28" value="Đơn vị bay" style="text;html=1;align=center;verticalAlign=middle;resizable=0;points=[];autosize=1;strokeColor=#b85450;fillColor=#f8cecc;fontSize=16;shadow=0;rounded=0;glass=0;" vertex="1" parent="1">
          <mxGeometry x="-180" y="230" width="100" height="30" as="geometry" />
        </mxCell>
        <mxCell id="yzoamSTQ4k_LrmFpl3Te-29" value="Pilot" style="swimlane;fontStyle=0;childLayout=stackLayout;horizontal=1;startSize=30;horizontalStack=0;resizeParent=1;resizeParentMax=0;resizeLast=0;collapsible=1;marginBottom=0;whiteSpace=wrap;html=1;fillColor=#ffe6cc;strokeColor=#d79b00;shadow=0;rounded=0;glass=0;" vertex="1" parent="1">
          <mxGeometry x="-110" y="440" width="140" height="90" as="geometry" />
        </mxCell>
        <mxCell id="yzoamSTQ4k_LrmFpl3Te-30" value="&lt;b&gt;&lt;u&gt;Pilot ID (PK)&lt;/u&gt;&lt;/b&gt;" style="text;strokeColor=none;fillColor=none;align=left;verticalAlign=middle;spacingLeft=4;spacingRight=4;overflow=hidden;points=[[0,0.5],[1,0.5]];portConstraint=eastwest;rotatable=0;whiteSpace=wrap;html=1;" vertex="1" parent="yzoamSTQ4k_LrmFpl3Te-29">
          <mxGeometry y="30" width="140" height="30" as="geometry" />
        </mxCell>
        <mxCell id="yzoamSTQ4k_LrmFpl3Te-31" value="Unit Name" style="text;strokeColor=none;fillColor=none;align=left;verticalAlign=middle;spacingLeft=4;spacingRight=4;overflow=hidden;points=[[0,0.5],[1,0.5]];portConstraint=eastwest;rotatable=0;whiteSpace=wrap;html=1;" vertex="1" parent="yzoamSTQ4k_LrmFpl3Te-29">
          <mxGeometry y="60" width="140" height="30" as="geometry" />
        </mxCell>
        <mxCell id="yzoamSTQ4k_LrmFpl3Te-32" value="Phi công&amp;nbsp;" style="text;html=1;align=center;verticalAlign=middle;resizable=0;points=[];autosize=1;strokeColor=#d79b00;fillColor=#ffe6cc;fontSize=16;shadow=0;rounded=0;glass=0;" vertex="1" parent="1">
          <mxGeometry x="-85" y="410" width="90" height="30" as="geometry" />
        </mxCell>
      </root>
    </mxGraphModel>
  </diagram>
</mxfile>
